<svg width="175" height="175" viewBox="0 0 175 175" fill="none" xmlns="http://www.w3.org/2000/svg">
    <g clip-path="url(#clip0_290_37744)">
        <path d="M55.1334 110.577L54.3097 110.128L51.2925 122.197L75.4305 155.386L87.4995 128.231C74.8088 128.231 63.3525 121.087 55.1334 110.577Z" fill="#AAC4D1"/>
        <path d="M119.868 110.577C111.649 121.086 100.192 128.231 87.5015 128.231L99.5705 155.386L123.709 122.197L120.691 110.128L119.868 110.577Z" fill="#AAC4D1"/>
        <path d="M167.647 145.385C151.016 136.632 135.233 129.97 120.69 128.233H119.317L99.5694 155.388L87.5004 128.233L75.4313 155.388L55.6836 128.233H54.3109C39.7677 129.971 23.9847 136.632 7.35364 145.385C2.83333 147.766 0 152.467 0 157.575V170.474H72.4137L102.586 170.447L132.759 170.474H175V157.575C175 152.467 172.167 147.766 167.647 145.385Z" fill="#EBF7FD"/>
        <path d="M138.793 42.4286C138.793 50.9884 131.063 57.4756 122.633 55.9882C99.053 51.7429 75.2769 51.746 52.3673 55.9882C43.9372 57.4756 36.207 50.9887 36.207 42.4286C36.207 21.4949 53.176 4.52588 74.1097 4.52588H100.891C121.824 4.52623 138.793 21.4952 138.793 42.4286Z" fill="#2872C9"/>
        <path d="M81.4668 28.6632H93.5358V13.577H81.4668V28.6632Z" fill="#FBD077"/>
        <path d="M122.632 55.9874C130.625 57.3994 137.978 51.6365 138.72 43.7404L122.632 40.9012C99.0528 36.6559 75.2767 36.659 52.3671 40.9012L36.2822 43.7404C37.0245 51.6365 44.3744 57.3994 52.3671 55.9874C75.277 51.7449 99.0528 51.7422 122.632 55.9874Z" fill="#195A9B"/>
        <path d="M122.632 55.9875C99.0527 51.7422 75.2766 51.7453 52.367 55.9875C48.6557 56.6422 45.0804 55.749 42.2412 53.8182V73.922C42.2412 100.583 62.5049 128.232 87.4997 128.232C112.494 128.232 132.758 100.582 132.758 73.922V53.8182C129.919 55.749 126.344 56.6422 122.632 55.9875Z" fill="#FDC794"/>
    </g>
    <defs>
        <clipPath id="clip0_290_37744">
            <rect width="175" height="175" fill="white"/>
        </clipPath>
    </defs>
</svg>
