<svg width="280" height="280" viewBox="0 0 280 280" fill="none" xmlns="http://www.w3.org/2000/svg">
<path fill-rule="evenodd" clip-rule="evenodd" d="M134.077 120.402C118.754 124.158 110.36 141.514 116.916 155.885C126.09 175.994 153.898 176.051 162.973 155.98C171.648 136.79 154.31 115.442 134.077 120.402ZM144.944 128.604C162.271 133.932 160.353 160.129 142.449 162.694C124.485 165.268 115.467 141.51 130.334 130.78C133.832 128.256 140.557 127.254 144.944 128.604ZM94.1704 139.435C94.0102 139.597 93.9931 144.945 94.1329 151.318C94.5437 170.091 94.8918 170.427 114.384 170.845C126.894 171.114 127.378 171.008 123.895 168.778C116.446 164.009 111.581 153.835 111.903 143.699L112.04 139.361L103.251 139.25C98.417 139.189 94.331 139.272 94.1704 139.435ZM167.98 139.397C167.84 139.539 167.825 141.54 167.946 143.845C168.455 153.538 163.828 163.341 156.301 168.516C152.719 170.979 152.911 171.026 165.536 170.732C185.814 170.259 186.334 169.622 185.923 145.764L185.813 139.361L177.024 139.25C172.189 139.189 168.12 139.255 167.98 139.397Z" fill="#E4E4E4"/>
<path d="M121.156 110.549C120.402 111.401 119.286 112.749 118.676 113.544L117.568 114.99L109.302 115.2C99.2668 115.456 97.6214 116.067 95.4229 120.36C94.6183 121.93 93.5851 134.144 94.1732 135.127C94.2751 135.298 98.6489 135.437 103.892 135.437H113.426L115.165 132.029C125.341 112.092 154.541 112.096 164.753 132.037L166.501 135.452L175.953 135.341L185.405 135.231V128.415C185.405 122.905 185.312 121.473 184.172 119.748C183.033 118.022 179.545 115.44 170.286 115.196L162.442 114.99L159.396 111.995L156.35 109H139.439H122.529L121.156 110.549Z" fill="#E4E4E4"/>
</svg>
