<svg width="175" height="222" viewBox="0 0 175 222" fill="none" xmlns="http://www.w3.org/2000/svg">
    <path d="M44.0686 63.6793C44.1557 63.6422 44.2481 63.6267 44.3447 63.6318C69.1047 63.6348 93.8653 63.6339 118.626 63.6331C122.749 63.633 126.873 63.6328 130.996 63.6327C131.419 63.6577 131.812 64.0571 131.897 64.4599C131.902 70.1237 131.902 75.7876 131.901 81.4516C131.9 87.1156 131.899 92.7795 131.904 98.4433C131.939 98.8893 131.504 99.3024 131.079 99.3413C116.94 99.3417 102.8 99.3417 88.6606 99.3417C74.5524 99.3417 60.4441 99.3417 46.3357 99.3421C46.1436 99.3434 45.9514 99.342 45.7591 99.3407C45.1745 99.3365 44.5896 99.3324 44.009 99.4025C43.6941 99.2222 43.3756 98.9108 43.3687 98.5252C43.3697 92.2321 43.3695 85.9386 43.3694 79.6452C43.3693 74.9255 43.3692 70.2059 43.3696 65.4864C43.373 65.3468 43.3699 65.2069 43.3669 65.0669C43.3615 64.8161 43.3561 64.5653 43.3877 64.3167C43.5378 64.0398 43.7993 63.8337 44.0686 63.6793Z" fill="#2F2F2F"/>
    <path d="M44.0686 63.6793C44.1557 63.6422 44.2481 63.6267 44.3447 63.6318C69.1047 63.6348 93.8653 63.6339 118.626 63.6331C122.749 63.633 126.873 63.6328 130.996 63.6327C131.419 63.6577 131.812 64.0571 131.897 64.4599C131.902 70.1237 131.902 75.7876 131.901 81.4516C131.9 87.1156 131.899 92.7795 131.904 98.4433C131.939 98.8893 131.504 99.3024 131.079 99.3413C116.94 99.3417 102.8 99.3417 88.6606 99.3417C74.5524 99.3417 60.4441 99.3417 46.3357 99.3421C46.1436 99.3434 45.9514 99.342 45.7591 99.3407C45.1745 99.3365 44.5896 99.3324 44.009 99.4025C43.6941 99.2222 43.3756 98.9108 43.3687 98.5252C43.3697 92.2321 43.3695 85.9386 43.3694 79.6452C43.3693 74.9255 43.3692 70.2059 43.3696 65.4864C43.373 65.3468 43.3699 65.2069 43.3669 65.0669C43.3615 64.8161 43.3561 64.5653 43.3877 64.3167C43.5378 64.0398 43.7993 63.8337 44.0686 63.6793Z" stroke="black"/>
    <path d="M44.7058 64.0484C44.793 64.0113 44.8853 63.9958 44.9819 64.001C69.7419 64.0039 94.5025 64.0031 119.263 64.0022C123.387 64.0021 127.51 64.002 131.634 64.0018C132.056 64.0268 132.449 64.4262 132.535 64.8291C132.54 70.4928 132.539 76.1568 132.538 81.8207C132.537 87.4847 132.536 93.1487 132.541 98.8124C132.576 99.2584 132.141 99.6716 131.716 99.7104C117.592 99.7108 103.468 99.7108 89.3446 99.7108C75.2208 99.7108 61.0969 99.7108 46.9729 99.7113C46.7808 99.7125 46.5886 99.7112 46.3963 99.7098C45.8117 99.7057 45.2268 99.7015 44.6462 99.7716C44.3313 99.5914 44.0128 99.28 44.0059 98.8944C44.0069 92.6012 44.0068 86.3078 44.0066 80.0143C44.0065 75.2947 44.0064 70.575 44.0068 65.8555C44.0102 65.7159 44.0072 65.576 44.0041 65.4361C43.9987 65.1852 43.9933 64.9345 44.0249 64.6859C44.1751 64.409 44.4365 64.2028 44.7058 64.0484Z" fill="url(#paint0_linear_290_37646)"/>
    <path d="M44.7058 64.0484C44.793 64.0113 44.8853 63.9958 44.9819 64.001C69.7419 64.0039 94.5025 64.0031 119.263 64.0022C123.387 64.0021 127.51 64.002 131.634 64.0018C132.056 64.0268 132.449 64.4262 132.535 64.8291C132.54 70.4928 132.539 76.1568 132.538 81.8207C132.537 87.4847 132.536 93.1487 132.541 98.8124C132.576 99.2584 132.141 99.6716 131.716 99.7104C117.592 99.7108 103.468 99.7108 89.3446 99.7108C75.2208 99.7108 61.0969 99.7108 46.9729 99.7113C46.7808 99.7125 46.5886 99.7112 46.3963 99.7098C45.8117 99.7057 45.2268 99.7015 44.6462 99.7716C44.3313 99.5914 44.0128 99.28 44.0059 98.8944C44.0069 92.6012 44.0068 86.3078 44.0066 80.0143C44.0065 75.2947 44.0064 70.575 44.0068 65.8555C44.0102 65.7159 44.0072 65.576 44.0041 65.4361C43.9987 65.1852 43.9933 64.9345 44.0249 64.6859C44.1751 64.409 44.4365 64.2028 44.7058 64.0484Z" stroke="black"/>
    <path d="M164.223 76.6122C164.217 76.2437 164.192 75.8789 164.129 75.5244C164.009 74.837 163.696 74.1574 163.142 73.733C162.699 73.3942 162.149 73.2508 161.605 73.1801C161.339 73.1455 161.066 73.1212 160.798 73.1147C160.54 73.1084 160.048 73.2258 159.815 73.1117C159.501 72.9582 159.176 72.7046 159.087 72.3552C159.078 69.9779 159.087 67.6006 159.084 65.2233C159.103 64.9827 158.88 64.8274 158.732 64.6722C158.54 64.5298 158.358 64.2995 158.098 64.3202C154.56 64.3245 151.022 64.3185 147.484 64.3237C147.129 64.3495 146.872 64.039 146.671 63.788C146.635 63.4637 146.661 63.1367 146.656 62.8124C146.596 58.0527 146.655 53.2883 146.656 48.5281C146.656 43.7427 146.656 38.9574 146.656 34.1721C146.656 32.1383 146.656 30.1045 146.655 28.0707C146.655 27.0419 146.655 26.013 146.654 24.9842C146.654 24.0406 146.734 23.0838 146.682 22.1412C146.659 21.7098 146.588 21.2771 146.443 20.869C146.3 20.4668 146.094 20.311 145.783 20.0322C145.05 19.3744 144.318 18.7157 143.582 18.0613C143.298 17.825 142.985 17.624 142.729 17.3566C142.145 16.8218 141.52 16.3301 140.977 15.7522C140.477 15.3614 139.967 14.9776 139.534 14.5083C138.922 13.9744 138.328 13.4189 137.715 12.8841C137.005 12.3337 136.341 11.7282 135.689 11.1115C135.452 10.8761 135.188 10.6706 134.948 10.4395C134.768 10.2661 134.623 10.0273 134.403 9.89296C134.07 9.69034 133.627 9.84587 133.459 10.1911C133.376 10.3614 133.455 10.7801 133.455 10.9734C133.454 11.2579 133.453 11.5423 133.453 11.8268C133.454 12.4194 133.457 13.012 133.455 13.6046C133.451 14.7198 133.363 15.8415 133.327 16.9575C133.177 21.6726 133.067 26.4105 133.11 31.1272C133.128 33.0355 133.106 34.9439 133.079 36.852C133.066 37.8171 133.106 38.7819 133.097 39.747C133.093 40.24 133.077 40.7333 133.034 41.2248C133.021 41.3794 132.983 42.6399 132.559 42.129C132.503 42.0616 132.473 41.9775 132.441 41.8958C132.149 41.1276 131.733 40.4194 131.232 39.7691C130.658 39.0181 130.032 38.24 129.34 37.5939C128.66 36.958 127.901 36.4068 127.088 35.9524C123.91 34.1754 120.218 34.2252 116.691 34.2249C114.295 34.2246 111.899 34.2244 109.503 34.2242C104.711 34.224 99.9191 34.2239 95.1272 34.224C90.3353 34.2241 85.5434 34.2242 80.7515 34.2242C75.9597 34.2243 71.1678 34.2243 66.3759 34.2241C64.0113 34.2241 61.6465 34.2238 59.2819 34.2236C58.0876 34.2235 56.8933 34.2233 55.699 34.2231C53.3803 34.2228 51.0238 34.4139 48.8111 35.1583C46.8285 35.8251 44.9666 36.9681 43.691 38.6252C42.9097 39.6403 42.3125 40.8736 41.1994 41.5081C41.2926 41.4709 41.1992 39.9678 41.1992 39.7972C41.1992 39.25 41.1988 38.7029 41.201 38.1558C41.2056 36.9578 41.2035 35.7597 41.2037 34.5617C41.2043 32.166 41.2025 29.7704 41.2015 27.3746C41.2015 27.3506 41.2015 27.3267 41.2015 27.3028C41.1993 22.5172 41.1974 17.7317 41.2081 12.9462C41.2081 12.2523 41.2114 11.5585 41.2135 10.8647C41.2135 10.7412 40.596 10.4869 40.4679 10.4903C40.2212 10.4968 39.6646 11.0642 39.4516 11.2011C36.1354 13.3334 32.818 15.4642 29.5002 17.594C28.701 18.107 28.0039 18.6178 28.0023 19.6236C28.0003 20.8182 28.0005 22.0128 28.0004 23.2074C28.0003 25.5966 28.0019 27.9859 28.0012 30.3752C27.9999 35.0899 27.9007 39.81 27.8733 44.519C27.8457 49.2395 27.9041 53.9666 27.8089 58.6859C27.7858 59.8332 27.7625 60.9804 27.7392 62.1278C27.7313 62.5171 27.7605 63.5963 27.102 63.468C23.0995 63.4645 19.0961 63.468 15.0935 63.4654C14.8286 63.443 14.6733 63.6992 14.4938 63.8501C14.3427 64.0313 14.0769 64.1813 14.1054 64.4505C14.1063 66.8114 14.1063 69.1731 14.1054 71.534C14.1235 71.6859 13.9906 71.7851 13.9052 71.8902C13.5578 72.3181 12.9444 72.2963 12.4308 72.392C11.8102 72.5076 11.1582 72.6378 10.6797 73.0493C10.0187 73.6178 9.80585 74.6443 9.71092 75.4706C9.54238 76.9382 9.71343 78.3865 9.70169 79.8478C9.68883 81.4485 9.67597 83.0491 9.66311 84.6497C9.65155 86.0855 9.63999 87.5294 9.84279 88.9542C9.93694 89.6154 10.0178 90.1381 10.5131 90.6162C10.9397 91.028 11.5085 91.278 12.0833 91.4002C12.5415 91.4209 13.0006 91.3864 13.4589 91.4089C13.7135 91.5727 13.9396 91.7936 14.1018 92.0506C14.1182 94.2511 14.0906 96.4533 14.1147 98.6537C14.2658 98.9617 14.548 99.1928 14.8069 99.4128C15.5344 99.4516 16.2653 99.4154 16.9937 99.4283C20.2428 99.4275 23.492 99.4292 26.7411 99.4266C27.0397 99.4318 27.3978 99.5336 27.5195 99.8372C27.8129 100.325 27.5532 100.89 27.5653 101.415C27.6555 103.761 27.5597 106.127 27.563 108.475C27.5664 110.817 27.5328 113.16 27.5159 115.502C27.4914 118.9 27.4882 122.298 27.4729 125.693C27.3254 126.153 26.8032 126.491 26.3191 126.435C23.9486 126.425 21.4821 126.251 19.1435 126.714C16.6784 127.203 14.677 128.688 13.5588 130.954C12.5691 132.96 12.7202 135.098 12.7203 137.265C12.7205 139.661 12.7205 142.057 12.7205 144.453C12.7205 149.244 12.7204 154.036 12.7202 158.827C12.7202 162.157 12.7201 165.488 12.7201 168.818C12.7011 169.015 12.8599 169.161 12.9755 169.302C13.2715 169.685 13.7513 169.88 14.2268 169.899C62.7284 169.897 111.23 169.898 159.732 169.898C160.141 169.888 160.562 169.945 160.959 169.811C161.487 169.712 161.853 169.214 162.015 168.742C162.018 163.956 162.018 159.171 162.018 154.386C162.018 149.649 162.041 144.91 162.003 140.173C161.993 138.954 162.001 137.734 162.01 136.514C162.019 135.396 162.11 134.241 161.94 133.131C161.601 130.863 160.063 128.689 158.055 127.57C155.751 126.288 153.12 126.514 150.584 126.513C149.809 126.513 149.015 126.471 148.245 126.523C147.838 126.55 147.404 126.504 147.057 126.271C146.558 125.936 146.659 125.512 146.658 124.969C146.657 123.774 146.656 122.579 146.655 121.384C146.654 118.994 146.654 116.603 146.655 114.213C146.656 109.791 146.657 105.369 146.654 100.947C146.654 100.835 146.643 100.713 146.742 100.638C146.978 100.387 147.271 100.1 147.641 100.118C151.204 100.119 154.767 100.126 158.329 100.116C158.744 99.9598 159.166 99.5293 159.086 99.0471C159.084 96.9752 159.076 94.9033 159.09 92.8313C159.267 92.4208 159.676 92.0222 160.157 92.0947C160.757 92.0947 161.357 92.1025 161.957 92.0947C162.813 91.9696 163.682 91.4391 163.952 90.5765C164.125 89.9952 164.198 89.3827 164.177 88.7763C164.101 86.5555 164.176 84.3185 164.176 82.0961C164.177 80.9707 164.177 79.8453 164.177 78.7198C164.177 78.0342 164.235 77.3164 164.223 76.6122ZM27.6525 95.6848C27.6646 96.0074 27.4609 96.3921 27.1477 96.4922C24.0047 96.4991 20.8608 96.5017 17.7178 96.4904C17.4382 96.3619 17.1879 96.0833 17.0481 95.8081C17.024 94.6436 17.049 93.4774 17.036 92.3129C16.9834 91.867 17.3804 91.5263 17.7368 91.3356C18.5817 91.3046 19.43 91.3313 20.2757 91.3253C21.0161 91.3727 21.7773 91.0725 22.2744 90.5179C22.667 90.1496 22.8224 89.6035 22.9026 89.0894C22.9121 84.4211 22.9018 79.7528 22.9078 75.0836C22.9656 74.1626 22.4051 73.2313 21.5844 72.829C20.8945 72.4907 20.1047 72.4365 19.3377 72.3881C18.5987 72.3415 17.037 72.5698 17.037 71.4391C17.0396 70.1159 17.0413 68.7927 17.0361 67.4703C16.9757 67.0399 17.3589 66.7345 17.6609 66.4956C20.9032 66.4464 24.1515 66.5085 27.3946 66.4654C27.4878 66.6422 27.669 66.7923 27.6569 67.0088C27.612 70.4109 27.6664 73.8146 27.6569 77.2176C27.662 83.3731 27.6465 89.5294 27.6525 95.6848ZM27.7302 73.6638C27.6214 73.16 27.6931 72.6399 27.6741 72.1284C27.6767 71.0355 27.6732 69.9434 27.6758 68.8505C27.6844 68.2588 27.6361 67.6627 27.7233 67.0753C27.7638 69.1369 27.7198 71.2011 27.7449 73.2635C27.7328 73.3955 27.7923 73.537 27.7302 73.6638ZM132.268 64.6187C132.259 75.8918 132.268 87.165 132.264 98.4373C132.272 98.8833 131.938 99.2292 131.616 99.4931C131.201 99.8381 130.623 99.6734 130.131 99.7062C101.565 99.7044 72.999 99.7027 44.4324 99.707C43.9845 99.7251 43.6506 99.3732 43.377 99.0644C43.1354 98.8039 43.1224 98.4278 43.1345 98.094C43.1915 97.2029 43.1535 96.3102 43.1647 95.4183C43.1638 85.4985 43.1638 75.5787 43.1647 65.659C43.1759 65.175 43.037 64.6575 43.2441 64.1986C43.4806 63.851 43.7861 63.5318 44.1511 63.3196C44.5532 63.2161 44.9753 63.2843 45.386 63.2722C73.9224 63.2748 102.46 63.2704 130.996 63.2739C131.306 63.2696 131.51 63.5353 131.723 63.7216C131.969 63.9717 132.31 64.2236 132.268 64.6187ZM151.057 88.866C151.064 89.1731 151.024 89.4897 151.116 89.7899C151.259 90.2936 151.369 90.8422 151.75 91.2321C152.128 91.7031 152.712 91.9394 153.281 92.0895C153.99 92.118 154.703 92.074 155.413 92.1068C155.747 92.2612 156.068 92.545 156.149 92.9133C156.148 94.1201 156.162 95.3285 156.141 96.5344C155.938 96.8338 155.677 97.1288 155.335 97.265C152.8 97.2806 150.264 97.2633 147.729 97.2737C147.353 97.3134 147.034 97.046 146.795 96.7889C146.587 96.5853 146.667 96.2826 146.654 96.0255C146.66 86.663 146.65 77.2987 146.659 67.9362C146.786 67.6377 147.086 67.3039 147.421 67.253C149.886 67.253 152.351 67.2539 154.815 67.2522C155.048 67.2547 155.285 67.2358 155.518 67.2703C155.764 67.4359 155.983 67.6524 156.14 67.906C156.159 69.3983 156.156 70.8931 156.142 72.3854C155.912 72.7512 155.556 73.1712 155.079 73.1221C154.006 73.1556 152.943 73.0958 152.056 73.8221C151.304 74.4385 151.15 75.2678 151.062 76.1781C150.95 77.342 151.057 78.5691 151.057 79.7389C151.058 82.1344 151.057 84.53 151.057 86.9255C151.057 87.5723 151.057 88.2192 151.057 88.866Z" fill="#2F80ED"/>
    <path d="M10.2871 172.672C10.5187 172.656 10.7532 172.653 10.9867 172.653C11.9387 172.654 12.8906 172.654 13.8425 172.655C18.5508 172.655 23.2591 172.658 27.9674 172.658C32.7613 172.658 37.5551 172.658 42.349 172.658C47.1429 172.658 51.9367 172.658 56.7306 172.658C61.5244 172.658 66.3183 172.658 71.1122 172.658C75.906 172.658 80.6999 172.658 85.4937 172.658C90.2876 172.658 95.0814 172.658 99.8753 172.658C104.669 172.658 109.463 172.658 114.257 172.658C119.051 172.658 123.845 172.658 128.639 172.658C133.432 172.658 138.226 172.658 143.02 172.658C147.749 172.658 152.479 172.685 157.206 172.66C158.47 172.654 159.733 172.646 160.997 172.639C162.207 172.633 163.466 172.517 164.665 172.7C165.221 172.785 165.772 172.985 166.196 173.354C166.753 173.839 167.043 174.575 167.133 175.308C167.218 176.009 167.131 176.713 167.117 177.416C167.101 178.157 167.115 178.9 167.114 179.641C167.112 182.861 167.111 186.08 167.111 189.299C167.111 190.188 167.071 191.076 167.121 191.97C167.159 192.669 167.192 193.379 167.029 194.06C166.825 194.913 166.312 195.593 165.473 195.883C165.155 196.003 164.808 195.938 164.478 195.955C112.985 195.954 61.4914 195.953 9.99783 195.955C9.01687 195.986 8.11755 195.252 7.83915 194.344C7.67579 193.812 7.67156 193.25 7.70565 192.699C7.73775 192.18 7.70832 191.673 7.70798 191.15C7.7072 189.954 7.7053 188.757 7.70254 187.561C7.6971 185.168 7.68856 182.775 7.67941 180.382C7.67665 179.664 7.67113 178.946 7.67113 178.228C7.67113 177.253 7.54168 176.223 7.66526 175.256C7.7683 174.45 8.11988 173.641 8.77575 173.16C9.23063 172.826 9.75101 172.711 10.2871 172.672Z" fill="url(#paint1_linear_290_37646)"/>
    <path d="M20.7827 198.947C20.8418 198.79 20.9365 198.655 21.0822 198.567C21.5664 198.275 22.3329 198.306 22.8744 198.322C24.4867 198.372 26.0924 198.369 27.7081 198.369C30.1045 198.369 32.5008 198.369 34.8973 198.369C37.9647 198.369 41.0321 198.369 44.0994 198.368C44.3975 198.368 44.8526 198.581 44.9903 198.853C45.0618 198.994 45.0633 199.158 45.0633 199.316C45.0636 202.12 45.0859 204.923 45.0859 207.727C45.0492 209.029 45.1395 210.226 44.184 211.257C43.5434 211.948 42.6503 212.309 41.7193 212.346C37.0062 212.534 32.2719 212.351 27.5559 212.347C26.2502 212.346 24.9445 212.346 23.6389 212.346C22.7824 212.347 21.7274 211.587 21.2763 210.902C20.8094 210.194 20.7073 209.307 20.7167 208.459C20.7312 206.998 20.7411 205.537 20.7469 204.077C20.7525 202.66 20.8509 201.205 20.7102 199.796C20.684 199.535 20.6835 199.211 20.7827 198.947Z" fill="#545151"/>
    <path d="M130.434 199.107C130.403 198.716 130.824 198.395 131.199 198.447C131.749 198.524 132.366 198.447 132.922 198.447C133.52 198.447 134.118 198.447 134.717 198.446C135.913 198.446 137.11 198.446 138.306 198.446C140.699 198.446 143.092 198.447 145.485 198.447C146.897 198.447 148.309 198.447 149.721 198.446C151.046 198.446 152.386 198.347 153.709 198.433C154.025 198.453 154.365 198.498 154.594 198.715C154.775 198.887 154.856 199.143 154.866 199.392C154.883 199.841 154.797 200.297 154.801 200.753C154.807 201.57 154.816 202.388 154.824 203.205C154.844 205.233 154.855 207.262 154.776 209.289C154.744 210.193 154.318 211.06 153.616 211.637C152.843 212.273 151.977 212.365 151.018 212.344C149.824 212.319 148.626 212.345 147.432 212.345C145.043 212.345 142.654 212.345 140.266 212.345C139.406 212.345 138.546 212.345 137.686 212.345C136.509 212.345 135.32 212.301 134.147 212.365C133.154 212.42 132.183 212.138 131.456 211.434C130.014 210.038 130.434 207.74 130.434 205.93C130.434 203.656 130.434 201.382 130.434 199.107Z" fill="#545151"/>
    <g filter="url(#filter0_i_290_37646)">
        <path d="M144.238 164.456H132.427C128.709 164.456 125.695 161.444 125.695 157.728C125.695 154.012 128.709 151 132.427 151H144.238C147.955 151 150.969 154.012 150.969 157.728C150.969 161.444 147.955 164.456 144.238 164.456Z" fill="#FFE24A"/>
    </g>
    <path d="M90.1357 58H86.8643C85.8347 58 85 57.3284 85 56.5C85 55.6716 85.8347 55 86.8643 55H90.1357C91.1653 55 92 55.6716 92 56.5C92 57.3284 91.1653 58 90.1357 58Z" fill="#FFAD33"/>
    <path d="M80.1357 58H76.8643C75.8347 58 75 57.3284 75 56.5C75 55.6716 75.8347 55 76.8643 55H80.1357C81.1653 55 82 55.6716 82 56.5C82 57.3284 81.1653 58 80.1357 58Z" fill="#FFAD33"/>
    <path d="M109.136 58H105.864C104.835 58 104 57.3284 104 56.5C104 55.6716 104.835 55 105.864 55H109.136C110.165 55 111 55.6716 111 56.5C111 57.3284 110.165 58 109.136 58Z" fill="#FFAD33"/>
    <path d="M70.1357 58H66.8643C65.8347 58 65 57.3284 65 56.5C65 55.6716 65.8347 55 66.8643 55H70.1357C71.1653 55 72 55.6716 72 56.5C72 57.3284 71.1653 58 70.1357 58Z" fill="#FFAD33"/>
    <path d="M99.1357 58H95.8643C94.8347 58 94 57.3284 94 56.5C94 55.6716 94.8347 55 95.8643 55H99.1357C100.165 55 101 55.6716 101 56.5C101 57.3284 100.165 58 99.1357 58Z" fill="#FFAD33"/>
    <g filter="url(#filter1_i_290_37646)">
        <path d="M43.3834 164.456H31.5721C27.8545 164.456 24.8408 161.444 24.8408 157.728C24.8408 154.012 27.8545 151 31.5721 151H43.3834C47.101 151 50.1147 154.012 50.1147 157.728C50.1147 161.444 47.101 164.456 43.3834 164.456Z" fill="#FFE24A"/>
    </g>
    <path d="M40.2713 187.5H33.7287C31.9153 187.5 30.5 186.128 30.5 184.5C30.5 182.872 31.9153 181.5 33.7287 181.5H40.2713C42.0847 181.5 43.5 182.872 43.5 184.5C43.5 186.128 42.0847 187.5 40.2713 187.5Z" fill="#FFA41D" stroke="#505050"/>
    <path d="M141.271 187.5H134.729C132.915 187.5 131.5 186.128 131.5 184.5C131.5 182.872 132.915 181.5 134.729 181.5H141.271C143.085 181.5 144.5 182.872 144.5 184.5C144.5 186.128 143.085 187.5 141.271 187.5Z" fill="#FFA41D" stroke="#505050"/>
    <path d="M109.002 165.482H67.8916C64.1044 165.482 61.0342 162.413 61.0342 158.627V128.204C61.0342 124.418 64.1043 121.35 67.8916 121.35H109.002C112.79 121.35 115.86 124.418 115.86 128.204V158.627C115.86 162.413 112.79 165.482 109.002 165.482Z" fill="url(#paint2_linear_290_37646)"/>
    <path d="M110.756 131.751H66.1378C64.8619 131.751 63.8276 130.717 63.8276 129.442C63.8276 128.166 64.8619 127.132 66.1378 127.132H110.756C112.032 127.132 113.066 128.166 113.066 129.442C113.066 130.717 112.032 131.751 110.756 131.751Z" fill="#454545"/>
    <path d="M110.756 141.067H66.1378C64.8619 141.067 63.8276 140.033 63.8276 138.757C63.8276 137.482 64.8619 136.448 66.1378 136.448H110.756C112.032 136.448 113.066 137.482 113.066 138.757C113.066 140.033 112.032 141.067 110.756 141.067Z" fill="#454545"/>
    <path d="M110.756 150.382H66.1378C64.8619 150.382 63.8276 149.349 63.8276 148.073C63.8276 146.798 64.8619 145.764 66.1378 145.764H110.756C112.032 145.764 113.066 146.798 113.066 148.073C113.066 149.349 112.032 150.382 110.756 150.382Z" fill="#454545"/>
    <path d="M110.756 159.698H66.1378C64.8619 159.698 63.8276 158.665 63.8276 157.389C63.8276 156.114 64.8619 155.08 66.1378 155.08H110.756C112.032 155.08 113.066 156.114 113.066 157.389C113.066 158.665 112.032 159.698 110.756 159.698Z" fill="#454545"/>
    <path d="M109.431 46H65.0425C64.6742 46 64.3357 45.7976 64.1615 45.4731L58.7911 35.4731C58.4334 34.8069 58.9159 34 59.6721 34H114.388C115.13 34 115.614 34.7795 115.284 35.4441L110.327 45.4441C110.158 45.7846 109.811 46 109.431 46Z" fill="#424242"/>
    <g filter="url(#filter2_i_290_37646)">
        <path d="M108.81 46H65.6405C64.904 46 64.227 45.5952 63.8785 44.9463L59.5822 36.9463C58.8667 35.6139 59.8319 34 61.3442 34H112.776C114.26 34 115.227 35.5589 114.568 36.8883L110.602 44.8883C110.265 45.5692 109.57 46 108.81 46Z" fill="url(#paint3_linear_290_37646)"/>
    </g>
    <rect x="9" y="72" width="14" height="20" rx="3" fill="#444444"/>
    <rect x="150" y="72" width="14" height="20" rx="3" fill="#444444"/>
    <rect x="68.25" y="177.25" width="39.5" height="12.5" rx="1.75" fill="white" stroke="#B6B6B6" stroke-width="0.5"/>
    <path d="M70.9361 186V181.8H72.6641C73.0361 181.8 73.3541 181.86 73.6181 181.98C73.8861 182.1 74.0921 182.272 74.2361 182.496C74.3801 182.72 74.4521 182.986 74.4521 183.294C74.4521 183.602 74.3801 183.868 74.2361 184.092C74.0921 184.316 73.8861 184.488 73.6181 184.608C73.3541 184.728 73.0361 184.788 72.6641 184.788H71.3681L71.7161 184.422V186H70.9361ZM71.7161 184.506L71.3681 184.128H72.6281C72.9721 184.128 73.2301 184.056 73.4021 183.912C73.5781 183.764 73.6661 183.558 73.6661 183.294C73.6661 183.026 73.5781 182.82 73.4021 182.676C73.2301 182.532 72.9721 182.46 72.6281 182.46H71.3681L71.7161 182.076V184.506ZM75.231 186V181.8H76.959C77.331 181.8 77.649 181.86 77.913 181.98C78.181 182.1 78.387 182.272 78.531 182.496C78.675 182.72 78.747 182.986 78.747 183.294C78.747 183.602 78.675 183.868 78.531 184.092C78.387 184.312 78.181 184.482 77.913 184.602C77.649 184.718 77.331 184.776 76.959 184.776H75.663L76.011 184.422V186H75.231ZM77.979 186L76.917 184.476H77.751L78.819 186H77.979ZM76.011 184.506L75.663 184.134H76.923C77.267 184.134 77.525 184.06 77.697 183.912C77.873 183.764 77.961 183.558 77.961 183.294C77.961 183.026 77.873 182.82 77.697 182.676C77.525 182.532 77.267 182.46 76.923 182.46H75.663L76.011 182.076V184.506ZM81.5877 186.06C81.2597 186.06 80.9577 186.006 80.6817 185.898C80.4057 185.79 80.1657 185.64 79.9617 185.448C79.7577 185.252 79.5997 185.024 79.4877 184.764C79.3757 184.5 79.3197 184.212 79.3197 183.9C79.3197 183.588 79.3757 183.302 79.4877 183.042C79.5997 182.778 79.7577 182.55 79.9617 182.358C80.1657 182.162 80.4057 182.01 80.6817 181.902C80.9577 181.794 81.2577 181.74 81.5817 181.74C81.9097 181.74 82.2097 181.794 82.4817 181.902C82.7577 182.01 82.9977 182.162 83.2017 182.358C83.4057 182.55 83.5637 182.778 83.6757 183.042C83.7877 183.302 83.8437 183.588 83.8437 183.9C83.8437 184.212 83.7877 184.5 83.6757 184.764C83.5637 185.028 83.4057 185.256 83.2017 185.448C82.9977 185.64 82.7577 185.79 82.4817 185.898C82.2097 186.006 81.9117 186.06 81.5877 186.06ZM81.5817 185.376C81.7937 185.376 81.9897 185.34 82.1697 185.268C82.3497 185.196 82.5057 185.094 82.6377 184.962C82.7697 184.826 82.8717 184.67 82.9437 184.494C83.0197 184.314 83.0577 184.116 83.0577 183.9C83.0577 183.684 83.0197 183.488 82.9437 183.312C82.8717 183.132 82.7697 182.976 82.6377 182.844C82.5057 182.708 82.3497 182.604 82.1697 182.532C81.9897 182.46 81.7937 182.424 81.5817 182.424C81.3697 182.424 81.1737 182.46 80.9937 182.532C80.8177 182.604 80.6617 182.708 80.5257 182.844C80.3937 182.976 80.2897 183.132 80.2137 183.312C80.1417 183.488 80.1057 183.684 80.1057 183.9C80.1057 184.112 80.1417 184.308 80.2137 184.488C80.2897 184.668 80.3937 184.826 80.5257 184.962C80.6577 185.094 80.8137 185.196 80.9937 185.268C81.1737 185.34 81.3697 185.376 81.5817 185.376ZM85.9724 186.06C85.6444 186.06 85.3304 186.014 85.0304 185.922C84.7304 185.826 84.4924 185.704 84.3164 185.556L84.5864 184.95C84.7544 185.082 84.9624 185.192 85.2104 185.28C85.4584 185.368 85.7124 185.412 85.9724 185.412C86.1924 185.412 86.3704 185.388 86.5064 185.34C86.6424 185.292 86.7424 185.228 86.8064 185.148C86.8704 185.064 86.9024 184.97 86.9024 184.866C86.9024 184.738 86.8564 184.636 86.7644 184.56C86.6724 184.48 86.5524 184.418 86.4044 184.374C86.2604 184.326 86.0984 184.282 85.9184 184.242C85.7424 184.202 85.5644 184.156 85.3844 184.104C85.2084 184.048 85.0464 183.978 84.8984 183.894C84.7544 183.806 84.6364 183.69 84.5444 183.546C84.4524 183.402 84.4064 183.218 84.4064 182.994C84.4064 182.766 84.4664 182.558 84.5864 182.37C84.7104 182.178 84.8964 182.026 85.1444 181.914C85.3964 181.798 85.7144 181.74 86.0984 181.74C86.3504 181.74 86.6004 181.772 86.8484 181.836C87.0964 181.9 87.3124 181.992 87.4964 182.112L87.2504 182.718C87.0624 182.606 86.8684 182.524 86.6684 182.472C86.4684 182.416 86.2764 182.388 86.0924 182.388C85.8764 182.388 85.7004 182.414 85.5644 182.466C85.4324 182.518 85.3344 182.586 85.2704 182.67C85.2104 182.754 85.1804 182.85 85.1804 182.958C85.1804 183.086 85.2244 183.19 85.3124 183.27C85.4044 183.346 85.5224 183.406 85.6664 183.45C85.8144 183.494 85.9784 183.538 86.1584 183.582C86.3384 183.622 86.5164 183.668 86.6924 183.72C86.8724 183.772 87.0344 183.84 87.1784 183.924C87.3264 184.008 87.4444 184.122 87.5324 184.266C87.6244 184.41 87.6704 184.592 87.6704 184.812C87.6704 185.036 87.6084 185.244 87.4844 185.436C87.3644 185.624 87.1784 185.776 86.9264 185.892C86.6744 186.004 86.3564 186.06 85.9724 186.06ZM90.4119 186.06C90.0839 186.06 89.7819 186.006 89.5059 185.898C89.2299 185.79 88.9899 185.64 88.7859 185.448C88.5819 185.252 88.4239 185.024 88.3119 184.764C88.1999 184.5 88.1439 184.212 88.1439 183.9C88.1439 183.588 88.1999 183.302 88.3119 183.042C88.4239 182.778 88.5819 182.55 88.7859 182.358C88.9899 182.162 89.2299 182.01 89.5059 181.902C89.7819 181.794 90.0819 181.74 90.4059 181.74C90.7339 181.74 91.0339 181.794 91.3059 181.902C91.5819 182.01 91.8219 182.162 92.0259 182.358C92.2299 182.55 92.3879 182.778 92.4999 183.042C92.6119 183.302 92.6679 183.588 92.6679 183.9C92.6679 184.212 92.6119 184.5 92.4999 184.764C92.3879 185.028 92.2299 185.256 92.0259 185.448C91.8219 185.64 91.5819 185.79 91.3059 185.898C91.0339 186.006 90.7359 186.06 90.4119 186.06ZM90.4059 185.376C90.6179 185.376 90.8139 185.34 90.9939 185.268C91.1739 185.196 91.3299 185.094 91.4619 184.962C91.5939 184.826 91.6959 184.67 91.7679 184.494C91.8439 184.314 91.8819 184.116 91.8819 183.9C91.8819 183.684 91.8439 183.488 91.7679 183.312C91.6959 183.132 91.5939 182.976 91.4619 182.844C91.3299 182.708 91.1739 182.604 90.9939 182.532C90.8139 182.46 90.6179 182.424 90.4059 182.424C90.1939 182.424 89.9979 182.46 89.8179 182.532C89.6419 182.604 89.4859 182.708 89.3499 182.844C89.2179 182.976 89.1139 183.132 89.0379 183.312C88.9659 183.488 88.9299 183.684 88.9299 183.9C88.9299 184.112 88.9659 184.308 89.0379 184.488C89.1139 184.668 89.2179 184.826 89.3499 184.962C89.4819 185.094 89.6379 185.196 89.8179 185.268C89.9979 185.34 90.1939 185.376 90.4059 185.376ZM94.2087 183.732H96.3027V184.392H94.2087V183.732ZM94.2747 186H93.4947V181.8H96.5607V182.454H94.2747V186ZM98.035 183.546H100.123V184.188H98.035V183.546ZM98.095 185.346H100.465V186H97.315V181.8H100.381V182.454H98.095V185.346ZM101.335 186V181.8H101.977L104.611 185.034H104.293V181.8H105.067V186H104.425L101.791 182.766H102.109V186H101.335Z" fill="#555555"/>
    <defs>
        <filter id="filter0_i_290_37646" x="125.695" y="151" width="25.2739" height="17.4565" filterUnits="userSpaceOnUse" color-interpolation-filters="sRGB">
            <feFlood flood-opacity="0" result="BackgroundImageFix"/>
            <feBlend mode="normal" in="SourceGraphic" in2="BackgroundImageFix" result="shape"/>
            <feColorMatrix in="SourceAlpha" type="matrix" values="0 0 0 0 0 0 0 0 0 0 0 0 0 0 0 0 0 0 127 0" result="hardAlpha"/>
            <feOffset dy="4"/>
            <feGaussianBlur stdDeviation="2"/>
            <feComposite in2="hardAlpha" operator="arithmetic" k2="-1" k3="1"/>
            <feColorMatrix type="matrix" values="0 0 0 0 1 0 0 0 0 0.557333 0 0 0 0 0.308333 0 0 0 0.55 0"/>
            <feBlend mode="normal" in2="shape" result="effect1_innerShadow_290_37646"/>
        </filter>
        <filter id="filter1_i_290_37646" x="24.8408" y="151" width="25.2739" height="17.4565" filterUnits="userSpaceOnUse" color-interpolation-filters="sRGB">
            <feFlood flood-opacity="0" result="BackgroundImageFix"/>
            <feBlend mode="normal" in="SourceGraphic" in2="BackgroundImageFix" result="shape"/>
            <feColorMatrix in="SourceAlpha" type="matrix" values="0 0 0 0 0 0 0 0 0 0 0 0 0 0 0 0 0 0 127 0" result="hardAlpha"/>
            <feOffset dy="4"/>
            <feGaussianBlur stdDeviation="2"/>
            <feComposite in2="hardAlpha" operator="arithmetic" k2="-1" k3="1"/>
            <feColorMatrix type="matrix" values="0 0 0 0 1 0 0 0 0 0.557333 0 0 0 0 0.308333 0 0 0 0.55 0"/>
            <feBlend mode="normal" in2="shape" result="effect1_innerShadow_290_37646"/>
        </filter>
        <filter id="filter2_i_290_37646" x="59.3413" y="32" width="55.4375" height="14" filterUnits="userSpaceOnUse" color-interpolation-filters="sRGB">
            <feFlood flood-opacity="0" result="BackgroundImageFix"/>
            <feBlend mode="normal" in="SourceGraphic" in2="BackgroundImageFix" result="shape"/>
            <feColorMatrix in="SourceAlpha" type="matrix" values="0 0 0 0 0 0 0 0 0 0 0 0 0 0 0 0 0 0 127 0" result="hardAlpha"/>
            <feOffset dy="-2"/>
            <feGaussianBlur stdDeviation="2"/>
            <feComposite in2="hardAlpha" operator="arithmetic" k2="-1" k3="1"/>
            <feColorMatrix type="matrix" values="0 0 0 0 0 0 0 0 0 0 0 0 0 0 0 0 0 0 0.28 0"/>
            <feBlend mode="normal" in2="shape" result="effect1_innerShadow_290_37646"/>
        </filter>
        <linearGradient id="paint0_linear_290_37646" x1="88" y1="64" x2="88" y2="98.5" gradientUnits="userSpaceOnUse">
            <stop stop-color="white" stop-opacity="0.26"/>
            <stop offset="1" stop-color="#2F2F2F" stop-opacity="0"/>
        </linearGradient>
        <linearGradient id="paint1_linear_290_37646" x1="10.5" y1="176" x2="164.5" y2="192.5" gradientUnits="userSpaceOnUse">
            <stop stop-color="#D5D5D5"/>
            <stop offset="0.130208" stop-color="#F8F8F8"/>
            <stop offset="0.270833" stop-color="#DBDBDB"/>
            <stop offset="0.458333" stop-color="#FEFEFF"/>
            <stop offset="0.671875" stop-color="#CFCFCF"/>
            <stop offset="0.828125" stop-color="#F5F6F8"/>
            <stop offset="1" stop-color="#BEC0C1"/>
        </linearGradient>
        <linearGradient id="paint2_linear_290_37646" x1="62.0266" y1="127.778" x2="115.53" y2="128.821" gradientUnits="userSpaceOnUse">
            <stop stop-color="#D5D5D5"/>
            <stop offset="0.130208" stop-color="#F8F8F8"/>
            <stop offset="0.270833" stop-color="#DBDBDB"/>
            <stop offset="0.458333" stop-color="#FEFEFF"/>
            <stop offset="0.671875" stop-color="#CFCFCF"/>
            <stop offset="0.828125" stop-color="#F5F6F8"/>
            <stop offset="1" stop-color="#BEC0C1"/>
        </linearGradient>
        <linearGradient id="paint3_linear_290_37646" x1="58.5" y1="34.5" x2="110.5" y2="45" gradientUnits="userSpaceOnUse">
            <stop stop-color="white" stop-opacity="0.21"/>
            <stop offset="1" stop-color="#424242" stop-opacity="0"/>
        </linearGradient>
    </defs>
</svg>

