<svg width="291" height="88" viewBox="0 0 291 88" fill="none" xmlns="http://www.w3.org/2000/svg">
    <path d="M1 87.124L290 87.124" stroke="#42494A" stroke-miterlimit="10" stroke-linecap="round" stroke-linejoin="round"/>
    <path d="M289.976 0H1.41113V61.9439H289.976V0Z" fill="#D1D1D0"/>
    <path d="M4.72461 60.8881L287.379 60.921V1.93652H4.72461V60.8881Z" fill="url(#paint0_linear_421_24941)"/>
    <path d="M1.0083 60.5202L4.37659 60.5196V1.90625L1.0083 1.94155V60.5202Z" fill="#7F8283"/>
    <path d="M216.204 62.845L191.309 67.462L19.709 67.3132L19.7139 61.7227L216.205 61.8931L216.204 62.845Z" fill="#1C1E20"/>
    <path d="M53.3714 67.2774L52.3935 70.2513L52.3888 75.553C52.3884 76.0697 51.9622 76.4882 51.437 76.4877L28.761 76.4683C28.2358 76.4679 27.8104 76.0485 27.811 75.5318L27.8155 70.47L26.8428 67.5424L28.9398 67.5441L28.9331 75.1488C28.9327 75.6125 29.3144 75.9887 29.7857 75.9892L50.3161 76.0068C50.7874 76.0072 51.1698 75.6316 51.1702 75.1678L51.1772 67.2754L53.3714 67.2774Z" fill="#323537"/>
    <path d="M30.1782 75.9822L49.9232 75.9991L50.7834 75.5769L50.7894 68.7394L49.93 68.3158L30.185 68.2988L29.325 68.721L29.3188 75.5584L30.1782 75.9822Z" fill="#0E1012"/>
    <path d="M29.3187 75.5577L50.7832 75.5762L50.7891 68.7386L29.3246 68.7202L29.3187 75.5577Z" fill="#2E3133"/>
    <path d="M28.9347 72.8442L51.1719 72.8633L51.1731 71.4534L28.936 71.4343L28.9347 72.8442Z" fill="#76797C"/>
    <path d="M63.2292 61.8174C63.1416 61.8172 61.9577 63.0963 60.674 64.5122C58.5224 66.8855 57.2864 69.937 57.1883 73.1271L57.0693 77.0005L58.9002 77.0021L59.1576 72.8113C59.3337 69.9432 60.5487 67.2345 62.5787 65.1843L65.9098 61.8198L63.2292 61.8174Z" fill="#383A3D"/>
    <path d="M104.455 74.5956L110.207 74.6006L110.213 66.6791L104.461 66.6742L104.455 74.5956Z" fill="#212426"/>
    <path d="M80.1392 74.5751L85.8911 74.5801L85.8979 66.6586L80.146 66.6537L80.1392 74.5751Z" fill="#212426"/>
    <path d="M127.968 61.8745C128.056 61.8745 129.238 63.1557 130.519 64.5737C132.666 66.9507 133.897 70.0044 133.989 73.1946L134.101 77.0683L132.271 77.0667L132.02 72.8754C131.849 70.0069 130.639 67.2963 128.613 65.2424L125.288 61.8721L127.968 61.8745Z" fill="#383A3D"/>
    <path d="M70.6197 87.1486C76.5396 87.1486 81.3386 82.427 81.3386 76.6026C81.3386 70.7782 76.5396 66.0566 70.6197 66.0566C64.6999 66.0566 59.9009 70.7782 59.9009 76.6026C59.9009 82.427 64.6999 87.1486 70.6197 87.1486Z" fill="#2E3133"/>
    <path d="M70.6287 66.3418L70.2903 67.631L69.8584 66.3691L69.6177 67.6794L69.0922 66.4524L68.9507 67.7765L68.3345 66.5911L68.2926 67.9219L67.5892 66.7845L67.6473 68.1148L66.8605 67.0315L67.0183 68.3538L66.1523 67.3308L66.4089 68.6381L65.4684 67.6807L65.8225 68.9658L64.8127 68.0794L65.2623 69.3352L64.1888 68.5245L64.7315 69.7443L63.6 69.0139L64.2327 70.1908L63.0495 69.5446L63.7688 70.6724L62.5403 70.114L63.3423 71.1864L62.0752 70.7188L62.9556 71.7299L61.6569 71.3556L62.6107 72.3001L61.2874 72.0213L62.3097 72.8939L60.969 72.7118L62.0539 73.5078L60.7033 73.4236L61.8449 74.1386L60.4917 74.1529L61.6839 74.783L60.3355 74.8954L61.5716 75.4372L60.2354 75.6474L61.5089 76.0978L60.1919 76.4045L61.4957 76.7611L60.2056 77.1627L61.5325 77.4236L60.276 77.9179L61.619 78.0816L60.4029 78.6659L61.7545 78.7316L60.5857 79.4026L61.9385 79.37L60.8232 80.1241L62.1699 79.9932L61.1143 80.8263L62.4475 80.5978L61.4572 81.5053L62.7696 81.1808L61.8503 82.1577L63.1347 81.7387L62.2911 82.7798L63.5406 82.2685L62.7774 83.368L63.9853 82.7673L63.3067 83.9194L64.466 83.2326L63.8759 84.4308L64.9806 83.6615L64.4819 84.8993L65.5257 84.052L65.1213 85.3227L66.0988 84.4019L65.7909 85.6984L66.6965 84.7091L66.4868 86.0244L67.3157 84.972L67.2053 86.2989L67.9529 85.1892L67.9424 86.5206L68.6048 85.3594L68.6942 86.6881L69.2676 85.482L69.4564 86.8003L69.9377 85.556L70.2251 86.8571L70.6116 85.581L70.9958 86.8578L71.2855 85.5571L71.7646 86.8024L71.9558 85.4843L72.527 86.6913L72.6188 85.363L73.2791 86.5252L73.2709 85.1937L74.0166 86.3048L73.9085 84.9777L74.7356 86.0315L74.5281 84.7158L75.432 85.7067L75.1265 84.4096L76.1022 85.3321L75.7001 84.0608L76.7426 84.9099L76.2461 83.6713L77.3493 84.4424L76.7613 83.2432L77.9194 83.932L77.2429 82.7788L78.4496 83.3816L77.6884 82.2807L78.9371 82.7941L78.0953 81.7515L79.379 82.1728L78.4613 81.1943L79.7732 81.5212L78.7846 80.6119L80.1173 80.8425L79.0632 80.0077L80.4096 80.1409L79.2957 79.385L80.6485 79.4198L79.4808 78.7469L80.8325 78.6834L79.6175 78.0972L80.9608 77.9357L79.7051 77.4392L81.0326 77.1806L79.7431 76.7768L81.0475 76.4225L79.7312 76.1135L81.0055 75.6653L79.6695 75.4528L80.9067 74.9132L79.5584 74.7983L80.7518 74.1702L79.3986 74.1537L80.5414 73.4407L79.1907 73.5225L80.277 72.7284L78.9361 72.9081L79.9597 72.0373L78.6361 72.314L79.5915 71.3711L78.2922 71.7432L79.1742 70.7334L77.9064 71.199L78.7103 70.1279L77.4809 70.6842L78.2022 69.5577L77.0179 70.2018L77.6527 69.026L76.5199 69.7544L77.0647 68.5356L75.9896 69.3444L76.4415 68.0893L75.4301 68.974L75.7865 67.6896L74.8443 68.6453L75.1034 67.3385L74.2354 68.36L74.3957 67.038L73.6068 68.1198L73.6674 66.7897L72.9619 67.9259L72.9224 66.5951L72.3042 67.7794L72.1648 66.455L71.6373 67.6812L71.3989 66.3705L70.9648 67.6316L70.6287 66.3418Z" fill="#0E1012"/>
    <path d="M70.6065 87.1359C76.5264 87.1359 81.3254 82.4143 81.3254 76.5899C81.3254 70.7655 76.5264 66.0439 70.6065 66.0439C64.6867 66.0439 59.8877 70.7655 59.8877 76.5899C59.8877 82.4143 64.6867 87.1359 70.6065 87.1359Z" fill="#2E3133"/>
    <path d="M60.5514 76.3045L61.4955 76.0846L60.5816 75.7614C60.5868 75.6994 60.5898 75.6369 60.5961 75.5754L61.5583 75.424L60.6679 75.0338C60.6778 74.9722 60.6903 74.9116 60.7013 74.8506L61.6704 74.7696L60.8129 74.3164C60.8272 74.2562 60.84 74.1953 60.8554 74.1356L61.8314 74.1253L61.0075 73.6093C61.0264 73.5502 61.048 73.4925 61.0681 73.4339L62.0406 73.4945L61.2593 72.9213C61.2826 72.864 61.3042 72.8059 61.3285 72.7491L62.2963 72.8805L61.5588 72.2508C61.5863 72.1953 61.6163 72.141 61.6449 72.086L62.5975 72.2868L61.9109 71.6069C61.9425 71.5536 61.9723 71.4991 62.0048 71.4463L62.9423 71.7166L62.3079 70.988C62.3436 70.9369 62.381 70.8871 62.4175 70.8366L63.3289 71.1729L62.7519 70.4014C62.7913 70.3531 62.8297 70.304 62.8699 70.2564L63.7553 70.659L63.2376 69.8473C63.2805 69.8019 63.3244 69.7573 63.3683 69.7128L64.2192 70.1775L63.7637 69.3304C63.8098 69.2882 63.8559 69.2461 63.903 69.2048L64.718 69.731L64.3274 68.8529C64.3765 68.8142 64.4261 68.776 64.4759 68.7381L65.2488 69.3217L64.9247 68.4162C64.9764 68.3813 65.0287 68.3472 65.0811 68.3133L65.809 68.9523L65.5538 68.026C65.608 67.9949 65.6621 67.9638 65.717 67.9339L66.3955 68.6246L66.2101 67.6798C66.2661 67.653 66.3232 67.6278 66.3798 67.6019L67.0048 68.3404L66.8909 67.3861C66.9489 67.3634 67.0068 67.3403 67.0653 67.3187L67.6339 68.1013L67.5917 67.139C67.6511 67.1206 67.7114 67.1046 67.7713 67.0874L68.2791 67.9086L68.3094 66.9486C68.3702 66.9346 68.431 66.9201 68.4922 66.9073L68.9372 67.7633L69.0395 66.8068C69.1012 66.7973 69.1634 66.7899 69.2255 66.7814L69.6043 67.6661L69.7776 66.7225C69.8403 66.7174 69.9028 66.7125 69.9657 66.7086L70.2768 67.6177L70.5206 66.6887C70.5522 66.6884 70.5832 66.6864 70.6148 66.6865C70.6464 66.6865 70.6774 66.6887 70.709 66.689L70.9511 67.6184L71.2639 66.7098C71.3268 66.7138 71.3895 66.719 71.452 66.724L71.6236 67.6679L72.004 66.7839C72.066 66.7924 72.1283 66.7999 72.1899 66.8095L72.2905 67.7662L72.737 66.911C72.7982 66.924 72.859 66.9386 72.9198 66.9527L72.9483 67.9127L73.4576 67.0925C73.5174 67.1098 73.5777 67.126 73.6371 67.1444L73.5933 68.1066L74.1632 67.325C74.2218 67.3467 74.2795 67.37 74.3375 67.3927L74.2219 68.3468L74.8483 67.6095C74.9049 67.6353 74.962 67.6606 75.0179 67.6876L74.8308 68.6321L75.5106 67.9425C75.5653 67.9726 75.6194 68.0038 75.6735 68.035L75.4166 68.9608L76.1457 68.323C76.1981 68.3571 76.2504 68.3911 76.3021 68.4261L75.9763 69.3312L76.7503 68.7489C76.8001 68.7868 76.8496 68.8251 76.8987 68.8638L76.5066 69.7412L77.3225 69.2166C77.3694 69.2579 77.4154 69.3001 77.4615 69.3424L77.0045 70.1887L77.8562 69.7255C77.9 69.7702 77.9438 69.8148 77.9867 69.8603L77.4675 70.6711L78.3535 70.2702C78.3937 70.3178 78.432 70.3671 78.4714 70.4154L77.893 71.1859L78.805 70.8511C78.8415 70.9016 78.8787 70.9515 78.9143 71.0027L78.2787 71.7301L79.2167 71.4615C79.2492 71.5143 79.2789 71.5688 79.3104 71.6222L78.6226 72.3009L79.5756 72.1016C79.604 72.1567 79.6338 72.211 79.6613 72.2666L78.9226 72.8949L79.8907 72.7651C79.9149 72.8219 79.9364 72.88 79.9595 72.9374L79.1773 73.5093L80.1498 73.4503C80.1696 73.5089 80.1912 73.5667 80.2099 73.6258L79.3851 74.1404L80.3611 74.1523C80.3764 74.212 80.3891 74.2729 80.4033 74.3331L79.545 74.7848L80.514 74.8674C80.5249 74.9286 80.5374 74.9892 80.5471 75.0507L79.656 75.4393L80.6179 75.5923C80.6242 75.654 80.6271 75.7165 80.6322 75.7783L79.7177 76.1L80.6614 76.3216C80.6631 76.3841 80.6655 76.4462 80.6661 76.509L79.7295 76.7634L80.656 77.0535C80.6529 77.116 80.648 77.1781 80.6439 77.2402L79.6914 77.4258L80.5925 77.7819C80.5848 77.844 80.577 77.906 80.5683 77.9677L79.6038 78.0836L80.4772 78.505C80.465 78.5662 80.452 78.627 80.4386 78.6878L79.467 78.7333L80.3059 79.2168C80.2891 79.2768 80.2719 79.3367 80.254 79.3964L79.2818 79.3712L80.0829 79.9149C80.0617 79.9734 80.0397 80.0317 80.0174 80.0898L79.0493 79.9941L79.8063 80.5935C79.7806 80.6506 79.7546 80.7075 79.7278 80.7638L78.7705 80.5982L79.4808 81.2514C79.4509 81.3064 79.4198 81.3607 79.3889 81.4151L78.4474 81.1806L79.1051 81.8819C79.071 81.9349 79.037 81.9878 79.0018 82.0399L78.0812 81.7378L78.6852 82.4859C78.6472 82.5363 78.6074 82.5851 78.5685 82.6346L77.6743 82.267L78.2189 83.0546C78.1772 83.1021 78.1361 83.1502 78.0934 83.197L77.2288 82.7651L77.7141 83.5924C77.669 83.6367 77.6215 83.6787 77.5756 83.7222L76.7471 83.2296L77.1677 84.0873C77.1193 84.1283 77.072 84.1704 77.0229 84.2105L76.2319 83.6577L76.5879 84.5457C76.5366 84.5831 76.4838 84.6183 76.4319 84.6547L75.686 84.0472L75.974 84.9573C75.9202 84.9908 75.8675 85.0259 75.8131 85.0583L75.1124 84.396L75.3317 85.3264C75.2756 85.3558 75.2183 85.3836 75.1615 85.4119L74.5141 84.7022L74.6627 85.6452C74.6046 85.6705 74.5471 85.6969 74.4885 85.7211L73.8943 84.9641L73.9719 85.9163C73.912 85.9372 73.8514 85.9565 73.7911 85.9764L73.2567 85.1802L73.2626 86.1343C73.2013 86.1509 73.1404 86.1685 73.0786 86.1838L72.6046 85.3494L72.5388 86.3015C72.4763 86.3134 72.4132 86.3236 72.3503 86.3344L71.9416 85.4707L71.8049 86.4134C71.7414 86.4207 71.6786 86.4302 71.6149 86.4363L71.2715 85.5435L71.0641 86.4745C71.0004 86.4773 70.9359 86.4775 70.8719 86.4791L70.5976 85.5674L70.3216 86.4787C70.2576 86.4769 70.1931 86.4767 70.1294 86.4738L69.9237 85.5424L69.5786 86.4347C69.5147 86.4284 69.452 86.4188 69.3886 86.4113L69.2535 85.4684L68.8433 86.3314C68.7804 86.3205 68.7174 86.3102 68.6549 86.2982L68.5907 85.346L68.1152 86.1796C68.0533 86.1641 67.9926 86.1464 67.9313 86.1298L67.9389 85.1757L67.4031 85.9709C67.3428 85.9509 67.2822 85.9316 67.2224 85.9106L67.3016 84.9585L66.7063 85.7144C66.6476 85.6902 66.5903 85.6636 66.5322 85.6383L66.6825 84.6955L66.0338 85.4041C65.977 85.3757 65.92 85.3479 65.8639 85.3183L66.0848 84.3883L65.3829 85.0496C65.3284 85.017 65.2759 84.9818 65.2221 84.9482L65.5117 84.0386L64.7648 84.6449C64.7128 84.6084 64.66 84.5731 64.6089 84.5356L64.9664 83.6481L64.1745 84.1994C64.1254 84.1592 64.078 84.1169 64.0299 84.0759L64.452 83.2189L63.6227 83.7102C63.5768 83.6665 63.5295 83.6246 63.4843 83.5801L63.9711 82.7537L63.1057 83.1841C63.0632 83.1374 63.0222 83.0892 62.9804 83.0416L63.5264 82.2549L62.6317 82.6211C62.5928 82.5714 62.5532 82.5224 62.5153 82.4721L63.1206 81.7251L62.1995 82.0256C62.1645 81.9733 62.1305 81.9202 62.0966 81.8673L62.7556 81.167L61.8136 81.4C61.7827 81.3455 61.7518 81.2912 61.722 81.2361L62.4335 80.5841L61.4759 80.7481C61.4493 80.6916 61.4234 80.6347 61.3979 80.5777L62.156 79.9794L61.1878 80.0735C61.1655 80.0154 61.1437 79.9571 61.1225 79.8985L61.9246 79.3562L60.9524 79.3796C60.9346 79.3199 60.9174 79.26 60.9007 79.1998L61.7406 78.7177L60.769 78.6704C60.7557 78.6097 60.7428 78.5488 60.7308 78.4877L61.6051 78.0678L60.6408 77.9501C60.6322 77.8885 60.6244 77.8264 60.617 77.7643L61.5186 77.4096L60.5666 77.2224C60.5626 77.1601 60.5578 77.0982 60.5549 77.0355L61.482 76.7471L60.5459 76.4911C60.547 76.4291 60.5496 76.3669 60.5514 76.3045Z" fill="#0E1012"/>
    <path d="M70.6198 82.0624C73.6844 82.0624 76.1688 79.6181 76.1688 76.603C76.1688 73.5878 73.6844 71.1436 70.6198 71.1436C67.5552 71.1436 65.0708 73.5878 65.0708 76.603C65.0708 79.6181 67.5552 82.0624 70.6198 82.0624Z" fill="#E8ECEA"/>
    <path d="M70.6195 81.5333C73.387 81.5333 75.6305 79.326 75.6305 76.6031C75.6305 73.8802 73.387 71.6729 70.6195 71.6729C67.8519 71.6729 65.6084 73.8802 65.6084 76.6031C65.6084 79.326 67.8519 81.5333 70.6195 81.5333Z" fill="#888C8D"/>
    <path d="M70.0728 72.9501C70.0725 73.2421 70.3129 73.479 70.6096 73.4793C70.9064 73.4795 71.1471 73.2431 71.1474 72.9511C71.1476 72.659 70.9072 72.4221 70.6105 72.4219C70.3139 72.4216 70.073 72.6581 70.0728 72.9501Z" fill="#E8ECEA"/>
    <path d="M67.7083 74.3582C67.918 74.5648 68.2583 74.5651 68.4682 74.3588C68.6783 74.1526 68.6786 73.8178 68.4689 73.6112C68.2593 73.4046 67.9191 73.4043 67.709 73.6106C67.4989 73.8168 67.4987 74.1516 67.7083 74.3582Z" fill="#E8ECEA"/>
    <path d="M67.0486 76.9998C67.3454 77 67.5861 76.7636 67.5863 76.4716C67.5866 76.1795 67.3463 75.9427 67.0495 75.9424C66.7527 75.9421 66.512 76.1786 66.5117 76.4706C66.5114 76.7626 66.7519 76.9995 67.0486 76.9998Z" fill="#E8ECEA"/>
    <path d="M68.48 79.3256C68.69 79.1194 68.6903 78.7846 68.4806 78.578C68.271 78.3714 67.9308 78.3711 67.7207 78.5774C67.5107 78.7836 67.5104 79.1184 67.7201 79.325C67.9297 79.5316 68.27 79.5319 68.48 79.3256Z" fill="#E8ECEA"/>
    <path d="M71.1645 79.9745C71.1647 79.6825 70.9243 79.4456 70.6276 79.4453C70.3308 79.445 70.0901 79.6815 70.0898 79.9735C70.0896 80.2655 70.3299 80.5024 70.6267 80.5027C70.9235 80.503 71.1643 80.2665 71.1645 79.9745Z" fill="#E8ECEA"/>
    <path d="M73.529 78.5663C73.3193 78.3597 72.9792 78.3594 72.7691 78.5656C72.559 78.7719 72.5587 79.1067 72.7684 79.3134C72.9781 79.52 73.3182 79.5203 73.5283 79.3141C73.7383 79.1077 73.7387 78.773 73.529 78.5663Z" fill="#E8ECEA"/>
    <path d="M74.1882 75.9248C73.8914 75.9245 73.6507 76.161 73.6504 76.453C73.6501 76.745 73.8906 76.9819 74.1872 76.9822C74.484 76.9825 74.7247 76.746 74.725 76.454C74.7253 76.162 74.485 75.9251 74.1882 75.9248Z" fill="#E8ECEA"/>
    <path d="M72.7569 73.5988C72.5468 73.8051 72.5465 74.1399 72.7562 74.3465C72.9659 74.5532 73.3061 74.5535 73.5161 74.3472C73.726 74.141 73.7264 73.8062 73.5168 73.5996C73.3071 73.3928 72.967 73.3926 72.7569 73.5988Z" fill="#E8ECEA"/>
    <path d="M71.4324 78.9426L72.7521 78.001L73.2572 76.4761L72.7549 74.9503L71.4368 74.0063L69.8066 74.0049L68.487 74.9466L67.9819 76.4714L68.4843 77.9973L69.8022 78.9413L71.4324 78.9426Z" fill="#E8ECEA"/>
    <path d="M70.313 74.4959C70.3129 74.6593 70.4474 74.792 70.6136 74.7921C70.7798 74.7923 70.9147 74.6599 70.9147 74.4964C70.9148 74.333 70.7802 74.2003 70.614 74.2002C70.448 74.1999 70.3131 74.3323 70.313 74.4959Z" fill="#6C6E71"/>
    <path d="M68.9888 75.2843C69.1061 75.4 69.2967 75.4001 69.4143 75.2847C69.5319 75.1693 69.532 74.9819 69.4147 74.8662C69.2973 74.7505 69.1068 74.7503 68.9892 74.8658C68.8716 74.9812 68.8714 75.1686 68.9888 75.2843Z" fill="#6C6E71"/>
    <path d="M68.6198 76.7628C68.786 76.763 68.9207 76.6306 68.921 76.4671C68.9211 76.3037 68.7865 76.171 68.6204 76.1709C68.4542 76.1708 68.3195 76.3032 68.3193 76.4666C68.3191 76.63 68.4536 76.7627 68.6198 76.7628Z" fill="#6C6E71"/>
    <path d="M69.4211 78.0651C69.5387 77.9497 69.5389 77.7622 69.4215 77.6465C69.3042 77.5307 69.1137 77.5306 68.996 77.646C68.8784 77.7615 68.8783 77.949 68.9956 78.0646C69.1131 78.1804 69.3035 78.1807 69.4211 78.0651Z" fill="#6C6E71"/>
    <path d="M70.9241 78.4291C70.9242 78.2656 70.7896 78.1329 70.6234 78.1328C70.4573 78.1327 70.3225 78.2651 70.3223 78.4285C70.3221 78.592 70.4567 78.7246 70.6229 78.7248C70.7891 78.7249 70.9239 78.5925 70.9241 78.4291Z" fill="#6C6E71"/>
    <path d="M72.2477 77.6406C72.1304 77.5249 71.9398 77.5247 71.8222 77.6402C71.7046 77.7556 71.7044 77.9431 71.8218 78.0588C71.9391 78.1746 72.1297 78.1747 72.2473 78.0592C72.3651 77.9437 72.3652 77.7563 72.2477 77.6406Z" fill="#6C6E71"/>
    <path d="M72.617 76.1621C72.4508 76.162 72.3161 76.2944 72.3159 76.4578C72.3158 76.6213 72.4504 76.7539 72.6165 76.7541C72.7827 76.7542 72.9174 76.6218 72.9177 76.4584C72.9176 76.2948 72.783 76.1622 72.617 76.1621Z" fill="#6C6E71"/>
    <path d="M71.8154 74.8589C71.6977 74.9744 71.6976 75.1619 71.815 75.2776C71.9323 75.3933 72.1228 75.3934 72.2405 75.278C72.3581 75.1626 72.3582 74.9751 72.2409 74.8593C72.1235 74.7436 71.933 74.7435 71.8154 74.8589Z" fill="#6C6E71"/>
    <path d="M70.6301 78.0389C71.491 78.0389 72.1889 77.3523 72.1889 76.5053C72.1889 75.6583 71.491 74.9717 70.6301 74.9717C69.7692 74.9717 69.0713 75.6583 69.0713 76.5053C69.0713 77.3523 69.7692 78.0389 70.6301 78.0389Z" fill="#6C6E71"/>
    <path d="M70.6301 77.9112C71.4195 77.9112 72.0595 77.2816 72.0595 76.5049C72.0595 75.7283 71.4195 75.0986 70.6301 75.0986C69.8406 75.0986 69.2007 75.7283 69.2007 76.5049C69.2007 77.2816 69.8406 77.9112 70.6301 77.9112Z" fill="#E8ECEA"/>
    <path d="M69.4385 76.5042C69.4379 77.1515 69.9708 77.6769 70.6288 77.6774C71.2868 77.678 71.8208 77.1536 71.8213 76.5062C71.8219 75.8588 71.2889 75.3336 70.6309 75.333C69.973 75.3323 69.439 75.8567 69.4385 76.5042Z" fill="#6C6E71"/>
    <path d="M69.5376 76.5046C69.5371 77.0982 70.0257 77.5799 70.6292 77.5804C71.2325 77.581 71.7221 77.1001 71.7227 76.5065C71.7232 75.9129 71.2345 75.4312 70.6311 75.4307C70.0277 75.4303 69.538 75.911 69.5376 76.5046Z" fill="#E8ECEA"/>
    <path d="M95.336 87.1486C101.256 87.1486 106.055 82.427 106.055 76.6026C106.055 70.7782 101.256 66.0566 95.336 66.0566C89.4162 66.0566 84.6172 70.7782 84.6172 76.6026C84.6172 82.427 89.4162 87.1486 95.336 87.1486Z" fill="#2E3133"/>
    <path d="M95.3449 66.3418L95.0065 67.631L94.5746 66.3691L94.334 67.6794L93.8085 66.4524L93.6668 67.7765L93.0507 66.5911L93.0088 67.9219L92.3054 66.7845L92.3635 68.1148L91.5767 67.0315L91.7345 68.3538L90.8685 67.3308L91.1252 68.6381L90.1846 67.6807L90.5387 68.9658L89.5289 68.0794L89.9786 69.3352L88.905 68.5245L89.4477 69.7443L88.3162 69.0139L88.9489 70.1908L87.7657 69.5446L88.4849 70.6724L87.2564 70.114L88.0585 71.1864L86.7914 70.7188L87.6718 71.7299L86.373 71.3556L87.3269 72.3001L86.0036 72.0213L87.0259 72.8939L85.6852 72.7118L86.7701 73.5078L85.4195 73.4236L86.5611 74.1386L85.2079 74.1529L86.4001 74.783L85.0517 74.8954L86.2878 75.4372L84.9516 75.6474L86.225 76.0978L84.9082 76.4045L86.2121 76.7611L84.9217 77.1627L86.2488 77.4236L84.9922 77.9179L86.3352 78.0816L85.1191 78.6659L86.4707 78.7316L85.3018 79.4026L86.6548 79.37L85.5394 80.1241L86.8861 79.9932L85.8305 80.8263L87.1637 80.5978L86.1733 81.5053L87.4858 81.1808L86.5664 82.1577L87.8509 81.7387L87.0072 82.7798L88.2568 82.2685L87.4936 83.368L88.7014 82.7673L88.0229 83.9194L89.1823 83.2326L88.592 84.4308L89.6967 83.6615L89.1981 84.8993L90.2419 84.052L89.8376 85.3227L90.815 84.4019L90.5071 85.6984L91.4128 84.7091L91.203 86.0244L92.032 84.972L91.9215 86.2989L92.6691 85.1892L92.6587 86.5206L93.3209 85.3594L93.4104 86.6881L93.9837 85.482L94.1726 86.8003L94.6539 85.556L94.9413 86.8571L95.3278 85.581L95.712 86.8578L96.0017 85.5571L96.4808 86.8024L96.672 85.4843L97.2433 86.6913L97.3351 85.363L97.9953 86.5252L97.9871 85.1937L98.7327 86.3048L98.6247 84.9777L99.4518 86.0315L99.2444 84.7158L100.148 85.7067L99.8427 84.4096L100.819 85.3321L100.416 84.0608L101.459 84.9099L100.962 83.6713L102.066 84.4424L101.477 83.2432L102.636 83.932L101.959 82.7788L103.166 83.3816L102.405 82.2807L103.653 82.7941L102.811 81.7515L104.095 82.1728L103.178 81.1943L104.489 81.5212L103.501 80.6119L104.834 80.8425L103.779 80.0077L105.126 80.1409L104.012 79.385L105.365 79.4198L104.197 78.7469L105.549 78.6834L104.334 78.0972L105.677 77.9357L104.421 77.4392L105.749 77.1806L104.459 76.7768L105.764 76.4225L104.447 76.1135L105.722 75.6653L104.386 75.4528L105.623 74.9132L104.275 74.7983L105.468 74.1702L104.115 74.1537L105.258 73.4407L103.907 73.5225L104.993 72.7284L103.652 72.9081L104.676 72.0373L103.352 72.314L104.308 71.3711L103.008 71.7432L103.891 70.7334L102.623 71.199L103.427 70.1279L102.197 70.6842L102.918 69.5577L101.734 70.2018L102.369 69.026L101.236 69.7544L101.781 68.5356L100.706 69.3444L101.158 68.0893L100.146 68.974L100.503 67.6896L99.5605 68.6453L99.8195 67.3385L98.9517 68.36L99.1119 67.038L98.323 68.1198L98.3836 66.7897L97.6781 67.9259L97.6386 66.5951L97.0204 67.7794L96.8811 66.455L96.3535 67.6812L96.1151 66.3705L95.6809 67.6316L95.3449 66.3418Z" fill="#0E1012"/>
    <path d="M95.3229 87.1359C101.243 87.1359 106.042 82.4143 106.042 76.5899C106.042 70.7655 101.243 66.0439 95.3229 66.0439C89.403 66.0439 84.604 70.7655 84.604 76.5899C84.604 82.4143 89.403 87.1359 95.3229 87.1359Z" fill="#2E3133"/>
    <path d="M85.2677 76.3045L86.2118 76.0846L85.2979 75.7614C85.3031 75.6994 85.3061 75.6369 85.3124 75.5754L86.2746 75.424L85.3842 75.0338C85.3941 74.9722 85.4067 74.9116 85.4176 74.8506L86.3868 74.7696L85.5292 74.3164C85.5436 74.2562 85.5563 74.1953 85.5717 74.1356L86.5478 74.1253L85.7238 73.6093C85.7427 73.5502 85.7643 73.4925 85.7843 73.4339L86.7567 73.4945L85.9755 72.9213C85.9987 72.864 86.0204 72.8059 86.0447 72.7491L87.0125 72.8805L86.275 72.2508C86.3025 72.1953 86.3325 72.141 86.3611 72.086L87.3137 72.2868L86.6271 71.6069C86.6587 71.5536 86.6885 71.4991 86.721 71.4463L87.6585 71.7166L87.0241 70.988C87.0598 70.9369 87.0972 70.8871 87.1337 70.8366L88.0451 71.1729L87.4681 70.4014C87.5075 70.3531 87.5459 70.304 87.5863 70.2564L88.4716 70.659L87.9539 69.8473C87.9969 69.8019 88.0408 69.7573 88.0847 69.7128L88.9355 70.1775L88.4801 69.3304C88.5262 69.2882 88.5723 69.2461 88.6193 69.2048L89.4343 69.731L89.0437 68.8529C89.0929 68.8142 89.1425 68.776 89.1924 68.7381L89.9653 69.3217L89.6411 68.4162C89.6928 68.3813 89.7452 68.3472 89.7976 68.3133L90.5255 68.9523L90.2703 68.026C90.3244 67.9949 90.3786 67.9638 90.4335 67.9339L91.112 68.6246L90.9265 67.6798C90.9826 67.653 91.0396 67.6278 91.0963 67.6019L91.7213 68.3404L91.6074 67.3861C91.6654 67.3634 91.7232 67.3403 91.7818 67.3187L92.3503 68.1013L92.3082 67.139C92.3676 67.1206 92.4279 67.1046 92.4878 67.0874L92.9956 67.9086L93.0258 66.9486C93.0867 66.9346 93.1474 66.9201 93.2087 66.9073L93.6536 67.7633L93.7559 66.8068C93.8176 66.7973 93.8798 66.7899 93.9419 66.7814L94.3208 67.6661L94.4941 66.7225C94.5567 66.7174 94.6192 66.7125 94.6823 66.7086L94.9934 67.6177L95.2373 66.6887C95.2689 66.6884 95.3 66.6864 95.3315 66.6865C95.3631 66.6865 95.3942 66.6887 95.4258 66.689L95.6679 67.6184L95.9807 66.7098C96.0436 66.7138 96.1062 66.719 96.1687 66.724L96.3404 67.6679L96.7209 66.7839C96.7828 66.7924 96.8452 66.7999 96.9067 66.8095L97.0074 67.7662L97.4538 66.911C97.5151 66.924 97.5758 66.9386 97.6367 66.9527L97.6652 67.9127L98.1745 67.0925C98.2343 67.1098 98.2946 67.126 98.3539 67.1444L98.3102 68.1066L98.8801 67.325C98.9386 67.3467 98.9964 67.37 99.0544 67.3927L98.9386 68.3468L99.5651 67.6095C99.6217 67.6353 99.6787 67.6606 99.7347 67.6876L99.5474 68.6321L100.227 67.9425C100.282 67.9726 100.336 68.0038 100.39 68.035L100.133 68.9608L100.862 68.323C100.915 68.3571 100.967 68.3911 101.019 68.4261L100.693 69.3312L101.467 68.7489C101.517 68.7868 101.566 68.8251 101.615 68.8638L101.223 69.7412L102.039 69.2166C102.086 69.2579 102.132 69.3001 102.178 69.3424L101.721 70.1887L102.573 69.7255C102.617 69.7702 102.66 69.8148 102.703 69.8603L102.184 70.6711L103.07 70.2702C103.11 70.3178 103.149 70.3671 103.188 70.4154L102.61 71.1859L103.522 70.8511C103.558 70.9016 103.595 70.9515 103.631 71.0027L102.995 71.7301L103.933 71.4615C103.966 71.5143 103.996 71.5688 104.027 71.6222L103.339 72.3009L104.292 72.1016C104.321 72.1567 104.351 72.211 104.378 72.2666L103.639 72.8949L104.607 72.7651C104.632 72.8219 104.653 72.88 104.676 72.9374L103.894 73.5093L104.866 73.4503C104.886 73.5089 104.908 73.5667 104.927 73.6258L104.102 74.1404L105.078 74.1523C105.093 74.212 105.106 74.2729 105.12 74.3331L104.262 74.7848L105.231 74.8674C105.242 74.9286 105.254 74.9892 105.264 75.0507L104.373 75.4393L105.335 75.5923C105.341 75.654 105.344 75.7165 105.349 75.7783L104.435 76.1L105.378 76.3216C105.38 76.3841 105.382 76.4462 105.383 76.509L104.446 76.7634L105.373 77.0535C105.37 77.116 105.365 77.1781 105.361 77.2402L104.408 77.4258L105.309 77.7819C105.302 77.844 105.294 77.906 105.285 77.9677L104.321 78.0836L105.194 78.505C105.182 78.5662 105.169 78.627 105.156 78.6878L104.184 78.7333L105.023 79.2168C105.006 79.2768 104.989 79.3367 104.971 79.3964L103.999 79.3712L104.8 79.9149C104.779 79.9734 104.757 80.0317 104.735 80.0898L103.767 79.9941L104.524 80.5935C104.498 80.6506 104.472 80.7075 104.445 80.7638L103.488 80.5982L104.198 81.2514C104.168 81.3064 104.137 81.3607 104.106 81.4151L103.165 81.1806L103.822 81.8819C103.788 81.9349 103.754 81.9878 103.719 82.0399L102.799 81.7378L103.403 82.4859C103.365 82.5363 103.325 82.5851 103.286 82.6346L102.392 82.267L102.936 83.0546C102.895 83.1021 102.853 83.1502 102.811 83.197L101.946 82.7651L102.432 83.5924C102.386 83.6367 102.339 83.6787 102.293 83.7222L101.465 83.2296L101.885 84.0873C101.837 84.1283 101.789 84.1704 101.74 84.2105L100.949 83.6577L101.305 84.5457C101.254 84.5831 101.201 84.6183 101.149 84.6547L100.403 84.0472L100.691 84.9573C100.637 84.9908 100.585 85.0259 100.53 85.0583L99.8297 84.396L100.049 85.3264C99.9929 85.3558 99.9356 85.3836 99.879 85.4119L99.2315 84.7022L99.3801 85.6452C99.322 85.6705 99.2646 85.6969 99.2059 85.7211L98.6118 84.9641L98.6893 85.9163C98.6295 85.9372 98.5688 85.9565 98.5085 85.9764L97.9741 85.1802L97.98 86.1343C97.9187 86.1509 97.8579 86.1685 97.796 86.1838L97.322 85.3494L97.2562 86.3015C97.1937 86.3134 97.1306 86.3236 97.0677 86.3344L96.6591 85.4707L96.5223 86.4134C96.4588 86.4207 96.396 86.4302 96.3322 86.4363L95.9887 85.5435L95.7814 86.4745C95.7177 86.4773 95.6532 86.4775 95.5892 86.4791L95.3149 85.5674L95.0389 86.4787C94.9748 86.4769 94.9104 86.4767 94.8467 86.4738L94.641 85.5424L94.2959 86.4347C94.2322 86.4284 94.1694 86.4188 94.1059 86.4113L93.9708 85.4684L93.5606 86.3314C93.4977 86.3205 93.4347 86.3102 93.3721 86.2982L93.308 85.346L92.8324 86.1796C92.7706 86.1641 92.7099 86.1464 92.6486 86.1298L92.6561 85.1757L92.1204 85.9709C92.0601 85.9509 91.9995 85.9316 91.9397 85.9106L92.0189 84.9585L91.4235 85.7144C91.3649 85.6902 91.3076 85.6636 91.2494 85.6383L91.3997 84.6955L90.751 85.4041C90.6943 85.3757 90.6372 85.3479 90.5812 85.3183L90.8021 84.3883L90.1001 85.0496C90.0457 85.017 89.9932 84.9818 89.9394 84.9482L90.229 84.0386L89.4821 84.6449C89.4301 84.6084 89.3773 84.5731 89.3261 84.5356L89.6837 83.6481L88.8918 84.1994C88.8427 84.1592 88.7955 84.1169 88.7472 84.0759L89.1693 83.2189L88.34 83.7102C88.2941 83.6665 88.2467 83.6246 88.2016 83.5801L88.6884 82.7537L87.823 83.1841C87.7805 83.1374 87.7394 83.0892 87.6977 83.0416L88.2437 82.2549L87.349 82.6211C87.3101 82.5714 87.2705 82.5224 87.2326 82.4721L87.8379 81.7251L86.9168 82.0256C86.8818 81.9733 86.8478 81.9202 86.8139 81.8673L87.4729 81.167L86.5309 81.4C86.5 81.3455 86.4691 81.2912 86.4393 81.2361L87.1508 80.5841L86.1932 80.7481C86.1666 80.6916 86.1407 80.6347 86.1151 80.5777L86.8733 79.9794L85.9051 80.0735C85.8828 80.0154 85.861 79.9571 85.8398 79.8985L86.6419 79.3562L85.6697 79.3796C85.6519 79.3199 85.6347 79.26 85.618 79.1998L86.4579 78.7177L85.4863 78.6704C85.473 78.6097 85.4601 78.5488 85.4481 78.4877L86.3224 78.0678L85.3581 77.9501C85.3495 77.8885 85.3417 77.8264 85.3343 77.7643L86.2359 77.4096L85.2838 77.2224C85.2799 77.1601 85.2751 77.0982 85.2722 77.0355L86.1993 76.7471L85.2632 76.4911C85.2633 76.4291 85.2659 76.3669 85.2677 76.3045Z" fill="#0E1012"/>
    <path d="M95.3361 82.0624C98.4007 82.0624 100.885 79.6181 100.885 76.603C100.885 73.5878 98.4007 71.1436 95.3361 71.1436C92.2715 71.1436 89.7871 73.5878 89.7871 76.603C89.7871 79.6181 92.2715 82.0624 95.3361 82.0624Z" fill="#E8ECEA"/>
    <path d="M95.3358 81.5333C98.1033 81.5333 100.347 79.326 100.347 76.6031C100.347 73.8802 98.1033 71.6729 95.3358 71.6729C92.5682 71.6729 90.3247 73.8802 90.3247 76.6031C90.3247 79.326 92.5682 81.5333 95.3358 81.5333Z" fill="#888C8D"/>
    <path d="M94.7886 72.9501C94.7883 73.2421 95.0287 73.479 95.3254 73.4793C95.6222 73.4795 95.8629 73.2431 95.8632 72.9511C95.8635 72.659 95.6232 72.4221 95.3264 72.4219C95.0297 72.4216 94.7888 72.6581 94.7886 72.9501Z" fill="#E8ECEA"/>
    <path d="M92.4242 74.3582C92.6338 74.5648 92.974 74.5651 93.1841 74.3588C93.3941 74.1526 93.3944 73.8178 93.1847 73.6112C92.9751 73.4046 92.6349 73.4043 92.4248 73.6106C92.2148 73.8168 92.2145 74.1516 92.4242 74.3582Z" fill="#E8ECEA"/>
    <path d="M91.7644 76.9998C92.0612 77 92.3019 76.7636 92.3022 76.4716C92.3024 76.1795 92.062 75.9427 91.7653 75.9424C91.4685 75.9421 91.2278 76.1786 91.2275 76.4706C91.2271 76.7626 91.4676 76.9995 91.7644 76.9998Z" fill="#E8ECEA"/>
    <path d="M93.1958 79.3256C93.4059 79.1194 93.4061 78.7846 93.1965 78.578C92.9868 78.3714 92.6465 78.3711 92.4366 78.5774C92.2265 78.7836 92.2262 79.1184 92.4359 79.325C92.6454 79.5316 92.9857 79.5319 93.1958 79.3256Z" fill="#E8ECEA"/>
    <path d="M95.8803 79.9745C95.8806 79.6825 95.6401 79.4456 95.3435 79.4453C95.0467 79.445 94.8059 79.6815 94.8057 79.9735C94.8054 80.2655 95.0458 80.5024 95.3425 80.5027C95.6392 80.503 95.88 80.2665 95.8803 79.9745Z" fill="#E8ECEA"/>
    <path d="M98.2448 78.5663C98.0351 78.3597 97.6948 78.3594 97.4849 78.5656C97.2748 78.7719 97.2745 79.1067 97.4842 79.3134C97.6939 79.52 98.034 79.5203 98.2441 79.3141C98.4542 79.1078 98.4545 78.773 98.2448 78.5663Z" fill="#E8ECEA"/>
    <path d="M98.904 75.9248C98.6072 75.9245 98.3665 76.161 98.3662 76.453C98.3659 76.745 98.6062 76.9819 98.903 76.9822C99.1998 76.9825 99.4406 76.746 99.4408 76.454C99.4411 76.162 99.2007 75.9251 98.904 75.9248Z" fill="#E8ECEA"/>
    <path d="M97.4727 73.5987C97.2626 73.805 97.2623 74.1398 97.472 74.3464C97.6817 74.5531 98.0218 74.5534 98.2319 74.3471C98.442 74.1409 98.4423 73.8061 98.2326 73.5995C98.0229 73.393 97.6826 73.3925 97.4727 73.5987Z" fill="#E8ECEA"/>
    <path d="M96.1489 78.9426L97.4685 78.001L97.9736 76.4761L97.4712 74.9503L96.1533 74.0063L94.5231 74.0049L93.2033 74.9466L92.6982 76.4714L93.2006 77.9973L94.5185 78.9413L96.1489 78.9426Z" fill="#E8ECEA"/>
    <path d="M95.0288 74.4959C95.0287 74.6593 95.1633 74.792 95.3294 74.7921C95.4956 74.7923 95.6303 74.6599 95.6306 74.4964C95.6307 74.333 95.4962 74.2003 95.33 74.2002C95.1638 74.1999 95.0289 74.3323 95.0288 74.4959Z" fill="#6C6E71"/>
    <path d="M93.7056 75.2843C93.8229 75.4 94.0135 75.4001 94.1311 75.2847C94.2487 75.1693 94.2488 74.9819 94.1315 74.8662C94.0141 74.7505 93.8236 74.7503 93.706 74.8658C93.5884 74.9812 93.5882 75.1686 93.7056 75.2843Z" fill="#6C6E71"/>
    <path d="M93.3359 76.7628C93.5021 76.763 93.6368 76.6306 93.6369 76.4671C93.6371 76.3037 93.5025 76.171 93.3363 76.1709C93.1701 76.1708 93.0354 76.3032 93.0352 76.4666C93.0353 76.63 93.1699 76.7627 93.3359 76.7628Z" fill="#6C6E71"/>
    <path d="M94.1374 78.0651C94.2551 77.9497 94.2552 77.7622 94.1378 77.6465C94.0205 77.5307 93.83 77.5306 93.7123 77.646C93.5947 77.7615 93.5946 77.949 93.7119 78.0646C93.8293 78.1804 94.0198 78.1807 94.1374 78.0651Z" fill="#6C6E71"/>
    <path d="M95.6407 78.4291C95.6409 78.2656 95.5063 78.1329 95.3401 78.1328C95.1739 78.1327 95.0392 78.2651 95.0391 78.4285C95.0389 78.592 95.1735 78.7246 95.3397 78.7248C95.5057 78.7249 95.6406 78.5925 95.6407 78.4291Z" fill="#6C6E71"/>
    <path d="M96.964 77.6406C96.8467 77.5249 96.6561 77.5247 96.5385 77.6402C96.4209 77.7556 96.4208 77.9431 96.5381 78.0588C96.6555 78.1746 96.846 78.1747 96.9636 78.0592C97.0812 77.9437 97.0814 77.7563 96.964 77.6406Z" fill="#6C6E71"/>
    <path d="M97.3334 76.1621C97.1672 76.162 97.0325 76.2944 97.0322 76.4578C97.0321 76.6213 97.1667 76.7539 97.3329 76.7541C97.499 76.7542 97.6337 76.6218 97.6339 76.4584C97.634 76.2949 97.4996 76.1622 97.3334 76.1621Z" fill="#6C6E71"/>
    <path d="M96.5317 74.8589C96.4141 74.9744 96.4139 75.1619 96.5313 75.2776C96.6486 75.3933 96.8391 75.3934 96.9568 75.278C97.0744 75.1626 97.0745 74.9751 96.9572 74.8593C96.8397 74.7436 96.6492 74.7435 96.5317 74.8589Z" fill="#6C6E71"/>
    <path d="M95.3464 78.0389C96.2073 78.0389 96.9052 77.3523 96.9052 76.5053C96.9052 75.6583 96.2073 74.9717 95.3464 74.9717C94.4855 74.9717 93.7876 75.6583 93.7876 76.5053C93.7876 77.3523 94.4855 78.0389 95.3464 78.0389Z" fill="#6C6E71"/>
    <path d="M95.3464 77.9112C96.1358 77.9112 96.7758 77.2816 96.7758 76.5049C96.7758 75.7283 96.1358 75.0986 95.3464 75.0986C94.557 75.0986 93.917 75.7283 93.917 76.5049C93.917 77.2816 94.557 77.9112 95.3464 77.9112Z" fill="#E8ECEA"/>
    <path d="M95.3462 77.6776C96.0042 77.6776 96.5376 77.1527 96.5376 76.5053C96.5376 75.8579 96.0042 75.333 95.3462 75.333C94.6882 75.333 94.1548 75.8579 94.1548 76.5053C94.1548 77.1527 94.6882 77.6776 95.3462 77.6776Z" fill="#6C6E71"/>
    <path d="M94.2534 76.5046C94.2529 77.0982 94.7416 77.5799 95.345 77.5804C95.9483 77.581 96.4379 77.1001 96.4385 76.5065C96.439 75.9129 95.9504 75.4312 95.3469 75.4307C94.7435 75.4303 94.254 75.911 94.2534 76.5046Z" fill="#E8ECEA"/>
    <path d="M119.777 87.1486C125.697 87.1486 130.496 82.427 130.496 76.6026C130.496 70.7782 125.697 66.0566 119.777 66.0566C113.858 66.0566 109.059 70.7782 109.059 76.6026C109.059 82.427 113.858 87.1486 119.777 87.1486Z" fill="#2E3133"/>
    <path d="M119.786 66.3418L119.448 67.631L119.016 66.3691L118.775 67.6794L118.25 66.4524L118.108 67.7765L117.492 66.5911L117.45 67.9219L116.747 66.7845L116.805 68.1148L116.018 67.0315L116.176 68.3538L115.31 67.3308L115.567 68.6381L114.626 67.6807L114.98 68.9658L113.97 68.0794L114.42 69.3352L113.346 68.5245L113.889 69.7443L112.758 69.0139L113.39 70.1908L112.207 69.5446L112.926 70.6724L111.698 70.114L112.5 71.1864L111.233 70.7188L112.113 71.7299L110.815 71.3556L111.768 72.3001L110.445 72.0213L111.467 72.8939L110.127 72.7118L111.211 73.5078L109.861 73.4236L111.002 74.1386L109.649 74.1529L110.842 74.783L109.493 74.8954L110.729 75.4372L109.393 75.6474L110.666 76.0978L109.35 76.4045L110.653 76.7611L109.363 77.1627L110.69 77.4236L109.434 77.9179L110.777 78.0816L109.561 78.6659L110.912 78.7316L109.743 79.4026L111.096 79.37L109.981 80.1241L111.328 79.9932L110.272 80.8263L111.605 80.5978L110.615 81.5053L111.927 81.1808L111.008 82.1577L112.292 81.7387L111.449 82.7798L112.698 82.2685L111.935 83.368L113.143 82.7673L112.464 83.9194L113.624 83.2326L113.033 84.4308L114.138 83.6615L113.639 84.8993L114.683 84.052L114.279 85.3227L115.256 84.4019L114.949 85.6984L115.854 84.7091L115.644 86.0244L116.473 84.972L116.363 86.2989L117.111 85.1892L117.1 86.5206L117.762 85.3594L117.852 86.6881L118.425 85.482L118.614 86.8003L119.095 85.556L119.383 86.8571L119.769 85.581L120.154 86.8578L120.443 85.5571L120.922 86.8024L121.114 85.4843L121.685 86.6913L121.776 85.363L122.437 86.5252L122.429 85.1937L123.174 86.3048L123.066 84.9777L123.893 86.0315L123.686 84.7158L124.59 85.7067L124.284 84.4096L125.26 85.3321L124.858 84.0608L125.9 84.9099L125.404 83.6713L126.507 84.4424L125.919 83.2432L127.077 83.932L126.401 82.7788L127.607 83.3816L126.846 82.2807L128.095 82.7941L127.253 81.7515L128.537 82.1728L127.619 81.1943L128.931 81.5212L127.942 80.6119L129.275 80.8425L128.221 80.0077L129.567 80.1409L128.453 79.385L129.806 79.4198L128.638 78.7469L129.99 78.6834L128.775 78.0972L130.118 77.9357L128.863 77.4392L130.19 77.1806L128.901 76.7768L130.205 76.4225L128.889 76.1135L130.163 75.6653L128.827 75.4528L130.064 74.9132L128.716 74.7983L129.909 74.1702L128.556 74.1537L129.699 73.4407L128.348 73.5225L129.435 72.7284L128.094 72.9081L129.117 72.0373L127.794 72.314L128.749 71.3711L127.45 71.7432L128.332 70.7334L127.064 71.199L127.868 70.1279L126.638 70.6842L127.36 69.5577L126.175 70.2018L126.81 69.026L125.677 69.7544L126.222 68.5356L125.147 69.3444L125.599 68.0893L124.588 68.974L124.944 67.6896L124.002 68.6453L124.261 67.3385L123.393 68.36L123.553 67.038L122.765 68.1198L122.825 66.7897L122.119 67.9259L122.08 66.5951L121.462 67.7794L121.323 66.455L120.795 67.6812L120.557 66.3705L120.122 67.6316L119.786 66.3418Z" fill="#0E1012"/>
    <path d="M119.764 87.1359C125.684 87.1359 130.483 82.4143 130.483 76.5899C130.483 70.7655 125.684 66.0439 119.764 66.0439C113.844 66.0439 109.045 70.7655 109.045 76.5899C109.045 82.4143 113.844 87.1359 119.764 87.1359Z" fill="#2E3133"/>
    <path d="M109.709 76.3045L110.654 76.0846L109.74 75.7614C109.745 75.6994 109.748 75.6369 109.754 75.5754L110.716 75.424L109.826 75.0338C109.836 74.9722 109.848 74.9116 109.859 74.8506L110.829 74.7696L109.971 74.3164C109.985 74.2562 109.998 74.1953 110.014 74.1356L110.99 74.1253L110.166 73.6093C110.185 73.5502 110.206 73.4925 110.226 73.4339L111.199 73.4945L110.417 72.9213C110.441 72.864 110.462 72.8059 110.486 72.7491L111.454 72.8805L110.717 72.2508C110.744 72.1953 110.774 72.141 110.803 72.086L111.755 72.2868L111.069 71.6069C111.1 71.5536 111.13 71.4991 111.163 71.4463L112.1 71.7166L111.466 70.988C111.502 70.9369 111.539 70.8871 111.576 70.8366L112.487 71.1729L111.91 70.4014C111.949 70.3531 111.988 70.304 112.028 70.2564L112.913 70.659L112.396 69.8473C112.439 69.8019 112.483 69.7573 112.526 69.7128L113.377 70.1775L112.922 69.3304C112.968 69.2882 113.014 69.2461 113.061 69.2048L113.876 69.731L113.486 68.8529C113.535 68.8142 113.584 68.776 113.634 68.7381L114.407 69.3217L114.083 68.4162C114.134 68.3813 114.187 68.3472 114.239 68.3133L114.967 68.9523L114.712 68.026C114.766 67.9949 114.82 67.9638 114.875 67.9339L115.554 68.6246L115.368 67.6798C115.424 67.653 115.481 67.6278 115.538 67.6019L116.163 68.3404L116.049 67.3861C116.107 67.3634 116.165 67.3403 116.224 67.3187L116.792 68.1013L116.75 67.139C116.809 67.1206 116.87 67.1046 116.93 67.0874L117.437 67.9086L117.468 66.9486C117.528 66.9346 117.589 66.9201 117.65 66.9073L118.095 67.7633L118.198 66.8068C118.259 66.7973 118.322 66.7899 118.384 66.7814L118.762 67.6661L118.936 66.7225C118.998 66.7174 119.061 66.7125 119.124 66.7086L119.435 67.6177L119.679 66.6887C119.71 66.6884 119.741 66.6864 119.773 66.6865C119.805 66.6865 119.836 66.6887 119.867 66.689L120.109 67.6184L120.422 66.7098C120.485 66.7138 120.548 66.719 120.61 66.724L120.782 67.6679L121.162 66.7839C121.224 66.7924 121.286 66.7999 121.348 66.8095L121.449 67.7662L121.895 66.911C121.956 66.924 122.017 66.9386 122.078 66.9527L122.106 67.9127L122.616 67.0925C122.675 67.1098 122.736 67.126 122.795 67.1444L122.751 68.1066L123.321 67.325C123.38 67.3467 123.437 67.37 123.495 67.3927L123.38 68.3468L124.006 67.6095C124.063 67.6353 124.12 67.6606 124.176 67.6876L123.989 68.6321L124.669 67.9425C124.723 67.9726 124.777 68.0038 124.831 68.035L124.574 68.9608L125.304 68.323C125.356 68.3571 125.408 68.3911 125.46 68.4261L125.134 69.3312L125.908 68.7489C125.958 68.7868 126.007 68.8251 126.057 68.8638L125.664 69.7412L126.48 69.2166C126.527 69.2579 126.573 69.3001 126.619 69.3424L126.162 70.1887L127.014 69.7255C127.058 69.7702 127.101 69.8148 127.144 69.8603L126.625 70.6711L127.511 70.2702C127.551 70.3178 127.59 70.3671 127.629 70.4154L127.051 71.1859L127.963 70.8511C127.999 70.9016 128.036 70.9515 128.072 71.0027L127.436 71.7301L128.374 71.4615C128.407 71.5143 128.437 71.5688 128.468 71.6222L127.78 72.3009L128.733 72.1016C128.762 72.1567 128.792 72.211 128.819 72.2666L128.08 72.8949L129.048 72.7651C129.073 72.8219 129.094 72.88 129.117 72.9374L128.335 73.5093L129.308 73.4503C129.328 73.5089 129.349 73.5667 129.368 73.6258L128.543 74.1404L129.519 74.1523C129.534 74.212 129.547 74.2729 129.561 74.3331L128.703 74.7848L129.672 74.8674C129.683 74.9286 129.695 74.9892 129.705 75.0507L128.814 75.4393L129.776 75.5923C129.782 75.654 129.785 75.7165 129.79 75.7783L128.876 76.1L129.819 76.3216C129.821 76.3841 129.823 76.4462 129.824 76.509L128.887 76.7634L129.814 77.0535C129.811 77.116 129.806 77.1781 129.802 77.2402L128.849 77.4258L129.75 77.7819C129.743 77.844 129.735 77.906 129.726 77.9677L128.762 78.0836L129.635 78.505C129.623 78.5662 129.61 78.627 129.596 78.6878L128.625 78.7333L129.464 79.2168C129.447 79.2768 129.43 79.3367 129.412 79.3964L128.44 79.3712L129.241 79.9149C129.22 79.9734 129.197 80.0317 129.175 80.0898L128.207 79.9941L128.964 80.5935C128.938 80.6506 128.912 80.7075 128.886 80.7638L127.928 80.5982L128.639 81.2514C128.609 81.3064 128.578 81.3607 128.547 81.4151L127.605 81.1806L128.263 81.8819C128.229 81.9349 128.195 81.9878 128.16 82.0399L127.239 81.7378L127.843 82.4859C127.805 82.5363 127.765 82.5851 127.727 82.6346L126.832 82.267L127.377 83.0546C127.335 83.1021 127.294 83.1502 127.251 83.197L126.387 82.7651L126.872 83.5924C126.827 83.6367 126.78 83.6787 126.734 83.7222L125.905 83.2296L126.326 84.0873C126.277 84.1283 126.23 84.1704 126.181 84.2105L125.39 83.6577L125.746 84.5457C125.695 84.5831 125.642 84.6183 125.59 84.6547L124.844 84.0472L125.132 84.9573C125.078 84.9908 125.026 85.0259 124.971 85.0583L124.27 84.396L124.49 85.3264C124.434 85.3558 124.376 85.3836 124.32 85.4119L123.672 84.7022L123.821 85.6452C123.763 85.6705 123.705 85.6969 123.646 85.7211L123.052 84.9641L123.13 85.9163C123.07 85.9372 123.009 85.9565 122.949 85.9764L122.415 85.1802L122.421 86.1343C122.359 86.1509 122.298 86.1685 122.237 86.1838L121.763 85.3494L121.697 86.3015C121.634 86.3134 121.571 86.3236 121.508 86.3344L121.1 85.4707L120.963 86.4134C120.899 86.4207 120.837 86.4302 120.773 86.4363L120.429 85.5435L120.222 86.4745C120.158 86.4773 120.094 86.4775 120.03 86.4791L119.755 85.5674L119.479 86.4787C119.415 86.4769 119.351 86.4767 119.287 86.4738L119.082 85.5424L118.736 86.4347C118.673 86.4284 118.61 86.4188 118.546 86.4113L118.411 85.4684L118.001 86.3314C117.938 86.3205 117.875 86.3102 117.813 86.2982L117.749 85.346L117.273 86.1796C117.211 86.1641 117.15 86.1464 117.089 86.1298L117.097 85.1757L116.561 85.9709C116.501 85.9509 116.44 85.9316 116.38 85.9106L116.459 84.9585L115.864 85.7144C115.805 85.6902 115.748 85.6636 115.69 85.6383L115.84 84.6955L115.191 85.4041C115.135 85.3757 115.078 85.3479 115.022 85.3183L115.242 84.3883L114.541 85.0496C114.486 85.017 114.434 84.9818 114.38 84.9482L114.669 84.0386L113.922 84.6449C113.871 84.6084 113.818 84.5731 113.767 84.5356L114.124 83.6481L113.332 84.1994C113.283 84.1592 113.236 84.1169 113.188 84.0759L113.61 83.2189L112.78 83.7102C112.734 83.6665 112.687 83.6246 112.642 83.5801L113.129 82.7537L112.263 83.1841C112.221 83.1374 112.18 83.0892 112.138 83.0416L112.684 82.2549L111.789 82.6211C111.75 82.5714 111.711 82.5224 111.673 82.4721L112.278 81.7251L111.357 82.0256C111.322 81.9733 111.288 81.9202 111.254 81.8673L111.913 81.167L110.971 81.4C110.94 81.3455 110.909 81.2912 110.88 81.2361L111.591 80.5841L110.634 80.7481C110.607 80.6916 110.581 80.6347 110.555 80.5777L111.313 79.9794L110.345 80.0735C110.323 80.0154 110.301 79.9571 110.28 79.8985L111.082 79.3562L110.11 79.3796C110.092 79.3199 110.075 79.26 110.058 79.1998L110.898 78.7177L109.927 78.6704C109.913 78.6097 109.901 78.5488 109.889 78.4877L110.763 78.0678L109.799 77.9501C109.79 77.8885 109.782 77.8264 109.775 77.7643L110.676 77.4096L109.724 77.2224C109.72 77.1601 109.716 77.0982 109.713 77.0355L110.64 76.7471L109.704 76.4911C109.705 76.4291 109.708 76.3669 109.709 76.3045Z" fill="#0E1012"/>
    <path d="M119.778 82.0624C122.842 82.0624 125.327 79.6181 125.327 76.603C125.327 73.5878 122.842 71.1436 119.778 71.1436C116.713 71.1436 114.229 73.5878 114.229 76.603C114.229 79.6181 116.713 82.0624 119.778 82.0624Z" fill="#E8ECEA"/>
    <path d="M119.777 81.5333C122.545 81.5333 124.788 79.326 124.788 76.6031C124.788 73.8802 122.545 71.6729 119.777 71.6729C117.01 71.6729 114.766 73.8802 114.766 76.6031C114.766 79.326 117.01 81.5333 119.777 81.5333Z" fill="#888C8D"/>
    <path d="M119.23 72.9501C119.23 73.2421 119.47 73.479 119.767 73.4793C120.064 73.4795 120.305 73.2431 120.305 72.9511C120.305 72.659 120.065 72.4221 119.768 72.4219C119.471 72.4216 119.231 72.6581 119.23 72.9501Z" fill="#E8ECEA"/>
    <path d="M116.866 74.3582C117.076 74.5648 117.416 74.5651 117.626 74.3588C117.836 74.1526 117.836 73.8178 117.627 73.6112C117.417 73.4046 117.077 73.4043 116.867 73.6106C116.657 73.8168 116.656 74.1516 116.866 74.3582Z" fill="#E8ECEA"/>
    <path d="M116.206 76.9998C116.503 77 116.744 76.7636 116.744 76.4716C116.744 76.1795 116.504 75.9427 116.207 75.9424C115.91 75.9421 115.67 76.1786 115.669 76.4706C115.669 76.7626 115.909 76.9995 116.206 76.9998Z" fill="#E8ECEA"/>
    <path d="M117.638 79.3256C117.848 79.1194 117.848 78.7846 117.638 78.578C117.429 78.3714 117.089 78.3711 116.878 78.5774C116.668 78.7836 116.668 79.1184 116.878 79.325C117.087 79.5316 117.428 79.5319 117.638 79.3256Z" fill="#E8ECEA"/>
    <path d="M120.322 79.9745C120.322 79.6825 120.082 79.4456 119.785 79.4453C119.489 79.445 119.248 79.6815 119.248 79.9735C119.247 80.2655 119.488 80.5024 119.784 80.5027C120.081 80.503 120.322 80.2665 120.322 79.9745Z" fill="#E8ECEA"/>
    <path d="M122.687 78.5663C122.477 78.3597 122.137 78.3594 121.927 78.5656C121.717 78.7719 121.716 79.1067 121.926 79.3134C122.136 79.52 122.476 79.5203 122.686 79.3141C122.896 79.1077 122.896 78.773 122.687 78.5663Z" fill="#E8ECEA"/>
    <path d="M123.346 75.9248C123.049 75.9245 122.808 76.161 122.808 76.453C122.808 76.745 123.048 76.9819 123.345 76.9822C123.642 76.9825 123.882 76.746 123.883 76.454C123.883 76.162 123.643 75.9251 123.346 75.9248Z" fill="#E8ECEA"/>
    <path d="M121.915 73.5988C121.705 73.8051 121.704 74.1399 121.914 74.3465C122.124 74.5532 122.464 74.5535 122.674 74.3472C122.884 74.141 122.884 73.8062 122.674 73.5996C122.465 73.3928 122.125 73.3926 121.915 73.5988Z" fill="#E8ECEA"/>
    <path d="M120.59 78.9426L121.91 78.001L122.415 76.4761L121.913 74.9503L120.595 74.0063L118.964 74.0049L117.645 74.9466L117.14 76.4714L117.642 77.9973L118.96 78.9413L120.59 78.9426Z" fill="#E8ECEA"/>
    <path d="M119.47 74.4959C119.47 74.6593 119.604 74.792 119.77 74.7921C119.937 74.7923 120.071 74.6599 120.071 74.4964C120.072 74.333 119.937 74.2003 119.771 74.2002C119.605 74.1999 119.47 74.3323 119.47 74.4959Z" fill="#6C6E71"/>
    <path d="M118.147 75.2843C118.264 75.4 118.454 75.4001 118.572 75.2847C118.69 75.1693 118.69 74.9819 118.572 74.8662C118.455 74.7505 118.265 74.7503 118.147 74.8658C118.029 74.9812 118.029 75.1686 118.147 75.2843Z" fill="#6C6E71"/>
    <path d="M117.777 76.7628C117.943 76.763 118.078 76.6306 118.078 76.4671C118.078 76.3037 117.944 76.171 117.778 76.1709C117.611 76.1708 117.477 76.3032 117.477 76.4666C117.476 76.63 117.611 76.7627 117.777 76.7628Z" fill="#6C6E71"/>
    <path d="M118.579 78.0651C118.696 77.9497 118.697 77.7622 118.579 77.6465C118.462 77.5307 118.271 77.5306 118.154 77.646C118.036 77.7615 118.036 77.949 118.153 78.0646C118.271 78.1804 118.461 78.1807 118.579 78.0651Z" fill="#6C6E71"/>
    <path d="M120.081 78.4291C120.081 78.2656 119.947 78.1329 119.781 78.1328C119.614 78.1327 119.48 78.2651 119.479 78.4285C119.479 78.592 119.614 78.7246 119.78 78.7248C119.946 78.7249 120.081 78.5925 120.081 78.4291Z" fill="#6C6E71"/>
    <path d="M121.405 77.6406C121.288 77.5249 121.097 77.5247 120.979 77.6402C120.862 77.7556 120.862 77.9431 120.979 78.0588C121.096 78.1746 121.287 78.1747 121.405 78.0592C121.522 77.9437 121.522 77.7563 121.405 77.6406Z" fill="#6C6E71"/>
    <path d="M121.775 76.1621C121.608 76.162 121.474 76.2944 121.474 76.4578C121.473 76.6213 121.608 76.7539 121.774 76.7541C121.94 76.7542 122.075 76.6218 122.075 76.4584C122.075 76.2948 121.941 76.1622 121.775 76.1621Z" fill="#6C6E71"/>
    <path d="M120.973 74.8589C120.855 74.9744 120.855 75.1619 120.973 75.2776C121.09 75.3933 121.281 75.3934 121.398 75.278C121.516 75.1626 121.516 74.9751 121.399 74.8593C121.281 74.7436 121.091 74.7435 120.973 74.8589Z" fill="#6C6E71"/>
    <path d="M118.229 76.5041C118.228 77.3511 118.925 78.0384 119.786 78.0391C120.647 78.0398 121.345 77.3537 121.346 76.5067C121.347 75.6596 120.65 74.9724 119.789 74.9717C118.928 74.971 118.229 75.6571 118.229 76.5041Z" fill="#6C6E71"/>
    <path d="M119.788 77.9112C120.577 77.9112 121.217 77.2816 121.217 76.5049C121.217 75.7283 120.577 75.0986 119.788 75.0986C118.998 75.0986 118.358 75.7283 118.358 76.5049C118.358 77.2816 118.998 77.9112 119.788 77.9112Z" fill="#E8ECEA"/>
    <path d="M118.596 76.5042C118.596 77.1515 119.129 77.6769 119.787 77.6774C120.445 77.678 120.978 77.1536 120.979 76.5062C120.98 75.8588 120.447 75.3336 119.789 75.333C119.131 75.3323 118.597 75.8567 118.596 76.5042Z" fill="#6C6E71"/>
    <path d="M118.695 76.5046C118.694 77.0982 119.183 77.5799 119.786 77.5804C120.39 77.581 120.879 77.1001 120.88 76.5065C120.88 75.9129 120.392 75.4312 119.788 75.4307C119.185 75.4301 118.695 75.911 118.695 76.5046Z" fill="#E8ECEA"/>
    <path d="M178.485 78.6134L179.436 78.6143L179.45 61.8602L178.499 61.8594L178.485 78.6134Z" fill="#7B7E80"/>
    <path d="M140.582 78.5812L141.533 78.582L141.548 61.828L140.597 61.8272L140.582 78.5812Z" fill="#7B7E80"/>
    <path d="M136.517 70.7337L183.515 70.7744L183.518 67.0061L136.52 66.9653L136.517 70.7337Z" fill="#DBDDDD"/>
    <path d="M136.51 79.0784L183.507 79.1191L183.511 75.3508L136.513 75.31L136.51 79.0784Z" fill="#DBDDDD"/>
    <path d="M186.645 76.2105L189.431 76.2129L189.443 61.87L186.657 61.8676L186.645 76.2105Z" fill="#282B2C"/>
    <path d="M186.894 77.416L189.179 77.418L189.18 76.2125L186.895 76.2105L186.894 77.416Z" fill="#242727"/>
    <path d="M185.731 77.8212L190.341 77.8252L190.341 77.419L185.731 77.415L185.731 77.8212Z" fill="#282B2C"/>
    <path d="M260.321 64.8301H261.826V61.9579H260.321V64.8301Z" fill="#383A3D"/>
    <path d="M12.1755 56.7373H5.25098V59.5168H12.1755V56.7373Z" fill="#F47D20"/>
    <defs>
        <linearGradient id="paint0_linear_421_24941" x1="146.052" y1="61.1035" x2="146.052" y2="2.28666" gradientUnits="userSpaceOnUse">
            <stop offset="0.0064" stop-color="#BFBFBF"/>
            <stop offset="0.0331" stop-color="#C4C4C4"/>
            <stop offset="0.1742" stop-color="#D6D6D6"/>
            <stop offset="0.3411" stop-color="#E3E3E3"/>
            <stop offset="0.5567" stop-color="#EBEBEB"/>
            <stop offset="0.9944" stop-color="#EDEDED"/>
        </linearGradient>
    </defs>
</svg>

