<!-- SVG sprite declaration -->
<svg version="1.1" xmlns="http://www.w3.org/2000/svg">
        <symbol id="close" width="20" height="20" viewBox="0 0 20 20" fill="none">
            <path fill-rule="evenodd" clip-rule="evenodd" d="M4.65015 4.64995C4.82593 4.47438 5.06421 4.37577 5.31265 4.37577C5.56109 4.37577 5.79937 4.47438 5.97515 4.64995L10.0002 8.67495L14.0252 4.64995C14.111
              4.55784 14.2145 4.48396 14.3295 4.43272C14.4445 4.38148 14.5686 4.35393 14.6945 4.35171C14.8204 4.34949 14.9454 4.37264 15.0621 4.41979C15.1789 4.46695 15.2849 4.53713 15.3739 4.62615C15.463 4.71517 15.5332
              4.82122 15.5803 4.93795C15.6275 5.05469 15.6506 5.17972 15.6484 5.3056C15.6462 5.43148 15.6186 5.55562 15.5674 5.67062C15.5161 5.78562 15.4423 5.88912 15.3502 5.97495L11.3252 9.99995L15.3502 14.0249C15.4423
              14.1108 15.5161 14.2143 15.5674 14.3293C15.6186 14.4443 15.6462 14.5684 15.6484 14.6943C15.6506 14.8202 15.6275 14.9452 15.5803 15.0619C15.5332 15.1787 15.463 15.2847 15.3739 15.3737C15.2849 15.4628 15.1789 15.533 15.0621 15.5801C14.9454 15.6273 14.8204 15.6504 14.6945 15.6482C14.5686 15.646 14.4445 15.6184 14.3295 15.5672C14.2145 15.5159 14.111 15.4421 14.0252 15.3499L10.0002 11.3249L5.97515 15.3499C5.79743 15.5155 5.56237 15.6057 5.3195 15.6014C5.07662 15.5971 4.84489 15.4987 4.67312 15.327C4.50136 15.1552 4.40297 14.9235 4.39868 14.6806C4.3944 14.4377 4.48455 14.2027 4.65015 14.0249L8.67515 9.99995L4.65015 5.97495C4.47459 5.79917 4.37598 5.56089 4.37598 5.31245C4.37598 5.06401 4.47459 4.82573 4.65015 4.64995Z"
                  fill="#828282"/>
        </symbol>
    <symbol id="icon-drivers" width="22" height="22" viewBox="0 0 22 22" fill="none">
        <path fill="currentColor" d="M11 0C4.93462 0 0 4.93462 0 11C0 17.0654 4.93462 22 11 22C17.0654 22 22 17.0654 22 11C22 4.93462 17.0654 0 11 0ZM2.57989 8.70358C3.62012 4.88327 7.08288 2.21538 11 2.21538C14.9175 2.21538 18.3799 4.88327 19.4205 8.70354C19.4506 8.81392 19.4275 8.93161 19.3582 9.02254C19.2888 9.11311 19.181 9.16665 19.0667 9.16665H2.93335C2.81931 9.16665 2.7115 9.11311 2.64223 9.02254C2.57288 8.93161 2.54981 8.81392 2.57989 8.70358ZM14.6667 12.1C14.6667 13.145 13.0838 13.9333 10.9846 13.9333C8.88577 13.9333 7.3025 13.145 7.3025 12.1C7.3025 11.0547 8.88577 10.2667 10.9846 10.2667C13.0838 10.2667 14.6667 11.0546 14.6667 12.1ZM3.64431 15.2742C3.61496 15.2816 3.58527 15.2848 3.55592 15.2848C3.42207 15.2848 3.2963 15.2119 3.23181 15.0894C2.56665 13.8314 2.21538 12.4175 2.21538 11C2.21538 10.9032 2.22161 10.8082 2.22823 10.7133L2.23631 10.5798C2.24473 10.4108 2.36719 10.2696 2.53331 10.2373C2.6932 10.2065 2.86331 10.1904 3.025 10.1904C4.44877 10.1904 5.60708 11.3483 5.60708 12.7721C5.60708 13.9575 4.80004 14.9864 3.64431 15.2742ZM16.1388 18.1104C14.6278 19.2056 12.8506 19.7846 11 19.7846C9.14762 19.7846 7.36854 19.2045 5.85604 18.1067C5.69435 17.989 5.65658 17.7635 5.77135 17.5996C6.66016 16.3283 8.71273 15.507 11 15.507C13.2821 15.507 15.3329 16.3298 16.2243 17.6036C16.3387 17.7676 16.3009 17.9931 16.1388 18.1104ZM18.7678 15.0913C18.7033 15.2134 18.5772 15.2863 18.4437 15.2863C18.4144 15.2863 18.3847 15.2827 18.3553 15.2757C17.2 14.9883 16.393 13.9587 16.393 12.7721C16.393 11.4528 17.3826 10.6333 18.975 10.6333C19.1269 10.6333 19.2926 10.6506 19.4682 10.6847C19.6336 10.717 19.756 10.8581 19.7645 11.0268L19.7722 11.1574C19.7788 11.252 19.7846 11.3465 19.7846 11.443C19.7846 12.8935 19.4275 13.8442 18.7678 15.0913Z"/>
    </symbol>
    <symbol id="icon-arrowLeft" width="24" height="24" viewBox="0 0 24 24" fill="currentColor" >
        <path d="M8.4498 17.4L3.5248 12.5C3.44147 12.4167 3.38314 12.3333 3.3498 12.25C3.31647 12.1667 3.2998 12.075 3.2998 11.975C3.2998 11.875 3.31647 11.7833 3.3498 11.7C3.38314 11.6167 3.44147 11.5333 3.5248 11.45L8.4498 6.52499C8.58314 6.39165 8.75814 6.32082 8.97481 6.31249C9.19147 6.30415 9.3748 6.37499 9.52481 6.52499C9.6748 6.67499 9.74981 6.85415 9.74981 7.06249C9.74981 7.27082 9.6748 7.44999 9.52481 7.59999L5.89981 11.225H20.2498C20.4665 11.225 20.6456 11.2958 20.7873 11.4375C20.929 11.5792 20.9998 11.7583 20.9998 11.975C20.9998 12.1917 20.929 12.3708 20.7873 12.5125C20.6456 12.6542 20.4665 12.725 20.2498 12.725H5.89981L9.52481 16.35C9.65814 16.4833 9.72897 16.6542 9.73731 16.8625C9.74564 17.0708 9.6748 17.25 9.52481 17.4C9.3748 17.55 9.19564 17.625 8.98731 17.625C8.77897 17.625 8.5998 17.55 8.4498 17.4Z" fill="currentColor"/>
    </symbol>
    <symbol id="icon-phone" width="18" height="18" viewBox="0 0 18 18" fill="none" >
        <path fill-rule="evenodd" clip-rule="evenodd" d="M3.64974 2.44642C3.80283 2.29354 3.98667 2.17495 4.18907 2.09849C4.39146 2.02204 4.60779 1.98948 4.82372 2.00297C5.03965 2.01646 5.25025 2.07568 5.44156 2.17672C5.63287 2.27776 5.80053 2.41831 5.93341 2.58905L7.50399 4.60689C7.79186 4.97704 7.89335 5.45918 7.77961 5.9142L7.301 7.83054C7.27625 7.9298 7.27759 8.03376 7.30488 8.13235C7.33217 8.23094 7.38448 8.32079 7.45674 8.39319L9.60655 10.5432C9.67903 10.6156 9.76903 10.668 9.86777 10.6953C9.96652 10.7226 10.0707 10.7238 10.17 10.6989L12.0853 10.2203C12.3099 10.1641 12.5442 10.1598 12.7707 10.2075C12.9972 10.2553 13.2098 10.3539 13.3926 10.4959L15.4102 12.0657C16.1356 12.6301 16.2021 13.7021 15.5529 14.3505L14.6481 15.2553C14.0007 15.9028 13.0329 16.1872 12.1308 15.8695C9.82195 15.0571 7.7256 13.7352 5.99729 12.0019C4.26422 10.2737 2.94241 8.17746 2.12991 5.8687C1.81317 4.96741 2.09753 3.99874 2.74501 3.35121L3.64974 2.44642Z" fill="#BDBDBD"/>
    </symbol>
    <symbol id="icon-massage" width="18" height="18" viewBox="0 0 18 18" fill="none">
        <path d="M12.75 2.625H5.25C3 2.625 1.5 3.75 1.5 6.375V11.625C1.5 14.25 3 15.375 5.25 15.375H12.75C15 15.375 16.5 14.25 16.5 11.625V6.375C16.5 3.75 15 2.625 12.75 2.625ZM13.1025 7.1925L10.755 9.0675C10.26 9.465 9.63 9.66 9 9.66C8.37 9.66 7.7325 9.465 7.245 9.0675L4.8975 7.1925C4.6575 6.9975 4.62 6.6375 4.8075 6.3975C5.0025 6.1575 5.355 6.1125 5.595 6.3075L7.9425 8.1825C8.5125 8.64 9.48 8.64 10.05 8.1825L12.3975 6.3075C12.6375 6.1125 12.9975 6.15 13.185 6.3975C13.38 6.6375 13.3425 6.9975 13.1025 7.1925Z" fill="#BDBDBD"/>
    </symbol>
    <symbol id="icon-close" width="30" height="30" viewBox="0 0 30 30" fill="none">
        <path d="M15 16.3125L8.4375 22.875C8.25 23.0625 8.03125 23.1562 7.78125 23.1562C7.53125 23.1562 7.3125 23.0625 7.125 22.875C6.9375 22.6875 6.84375 22.4687 6.84375 22.2187C6.84375 21.9687 6.9375 21.75 7.125 21.5625L13.6875 15L7.125 8.4375C6.9375 8.25 6.84375 8.03125 6.84375 7.78125C6.84375 7.53125 6.9375 7.3125 7.125 7.125C7.3125 6.9375 7.53125 6.84375 7.78125 6.84375C8.03125 6.84375 8.25 6.9375 8.4375 7.125L15 13.6875L21.5625 7.125C21.75 6.9375 21.9687 6.84375 22.2187 6.84375C22.4687 6.84375 22.6875 6.9375 22.875 7.125C23.0625 7.3125 23.1562 7.53125 23.1562 7.78125C23.1562 8.03125 23.0625 8.25 22.875 8.4375L16.3125 15L22.875 21.5625C23.0625 21.75 23.1562 21.9687 23.1562 22.2187C23.1562 22.4687 23.0625 22.6875 22.875 22.875C22.6875 23.0625 22.4687 23.1562 22.2187 23.1562C21.9687 23.1562 21.75 23.0625 21.5625 22.875L15 16.3125Z" fill="#BDBDBD"/>
    </symbol>
    <symbol id="icon-pen" width="25" height="24" viewBox="0 0 25 24" fill="none" >
        <path d="M20.35 7.34999L17.15 4.14999L18.2 3.09999C18.4833 2.81666 18.8375 2.67916 19.2625 2.68749C19.6875 2.69582 20.0417 2.84166 20.325 3.12499L21.4 4.19999C21.6833 4.48332 21.825 4.83332 21.825 5.24999C21.825 5.66666 21.6833 6.01666 21.4 6.29999L20.35 7.34999ZM4.25 21C4.03333 21 3.85417 20.9292 3.7125 20.7875C3.57083 20.6458 3.5 20.4667 3.5 20.25V18.1C3.5 18 3.51667 17.9083 3.55 17.825C3.58333 17.7417 3.64167 17.6583 3.725 17.575L16.1 5.19999L19.3 8.39999L6.925 20.775C6.84167 20.8583 6.75833 20.9167 6.675 20.95C6.59167 20.9833 6.5 21 6.4 21H4.25Z" fill="#BDBDBD"/>
    </symbol>






</svg>
